<svg width="51" height="41" viewBox="0 0 51 41" fill="none" xmlns="http://www.w3.org/2000/svg">
    <mask id="path-1-outside-1_3749_1273" maskUnits="userSpaceOnUse" x="0" y="0.0429688" width="51"
        height="41" fill="black">
        <rect fill="white" y="0.0429688" width="51" height="41" />
        <path
            d="M16.7 39.643C13.7333 39.643 11.1333 38.843 8.9 37.243C6.66667 35.643 4.91667 33.393 3.65 30.493C2.41667 27.593 1.8 24.2263 1.8 20.393C1.8 16.5263 2.41667 13.1596 3.65 10.293C4.88333 7.4263 6.61667 5.19297 8.85 3.59297C11.0833 1.99297 13.6833 1.19297 16.65 1.19297C19.6833 1.19297 22.3 1.99297 24.5 3.59297C26.7333 5.19297 28.4833 7.44297 29.75 10.343C31.0167 13.2096 31.65 16.5596 31.65 20.393C31.65 24.2263 31.0167 27.593 29.75 30.493C28.5167 33.3596 26.7833 35.6096 24.55 37.243C22.3167 38.843 19.7 39.643 16.7 39.643ZM16.75 33.443C18.45 33.443 19.9 32.9263 21.1 31.893C22.3 30.8263 23.2167 29.3263 23.85 27.393C24.5167 25.4263 24.85 23.093 24.85 20.393C24.85 17.693 24.5167 15.3763 23.85 13.443C23.2167 11.4763 22.2833 9.9763 21.05 8.94297C19.85 7.90963 18.3833 7.39297 16.65 7.39297C14.9833 7.39297 13.55 7.90963 12.35 8.94297C11.15 9.9763 10.2167 11.4763 9.55 13.443C8.91667 15.3763 8.6 17.693 8.6 20.393C8.6 23.0596 8.91667 25.3763 9.55 27.343C10.2167 29.2763 11.15 30.7763 12.35 31.843C13.5833 32.9096 15.05 33.443 16.75 33.443ZM43.0504 39.043V7.59297H35.8504V1.79297H49.8504V39.043H43.0504Z" />
    </mask>
    <path
        d="M8.9 37.243L8.31762 38.0559L8.9 37.243ZM3.65 30.493L2.72972 30.8843L2.7336 30.8932L3.65 30.493ZM3.65 10.293L2.73141 9.89776H2.73141L3.65 10.293ZM8.85 3.59297L8.26762 2.78005L8.85 3.59297ZM24.5 3.59297L23.9118 4.40172L23.9176 4.40588L24.5 3.59297ZM29.75 10.343L28.8336 10.7432L28.8353 10.7471L29.75 10.343ZM29.75 30.493L28.8336 30.0927L28.8314 30.0978L29.75 30.493ZM24.55 37.243L25.1324 38.0559L25.1403 38.0501L24.55 37.243ZM21.1 31.893L21.7525 32.6507L21.7585 32.6456L21.7644 32.6404L21.1 31.893ZM23.85 27.393L22.9029 27.0719L22.8997 27.0817L23.85 27.393ZM23.85 13.443L22.8981 13.7495L22.9013 13.7593L22.9046 13.769L23.85 13.443ZM21.05 8.94297L20.3974 9.7008L20.4078 9.70949L21.05 8.94297ZM12.35 8.94297L11.6975 8.1852L11.6975 8.1852L12.35 8.94297ZM9.55 13.443L8.60289 13.1219L8.59969 13.1317L9.55 13.443ZM9.55 27.343L8.59814 27.6495L8.60128 27.6593L8.60463 27.669L9.55 27.343ZM12.35 31.843L11.6856 32.5904L11.6958 32.5993L12.35 31.843ZM16.7 38.643C13.9246 38.643 11.5321 37.8985 9.48239 36.4301L8.31762 38.0559C10.7345 39.7874 13.542 40.643 16.7 40.643V38.643ZM9.48239 36.4301C7.4166 34.9501 5.77207 32.8531 4.5664 30.0927L2.7336 30.8932C4.06126 33.9329 5.91673 36.3358 8.31762 38.0559L9.48239 36.4301ZM4.57024 30.1016C3.39962 27.3491 2.8 24.1202 2.8 20.393H0.8C0.8 24.3324 1.43372 27.8369 2.72976 30.8843L4.57024 30.1016ZM2.8 20.393C2.8 16.6307 3.40016 13.404 4.56859 10.6882L2.73141 9.89776C1.43317 12.9153 0.8 16.4219 0.8 20.393H2.8ZM4.56859 10.6882C5.73996 7.96553 7.36634 5.88603 9.43239 4.40588L8.26762 2.78005C5.86699 4.4999 4.0267 6.88707 2.73141 9.89776L4.56859 10.6882ZM9.43239 4.40588C11.4821 2.93741 13.8746 2.19297 16.65 2.19297V0.192967C13.492 0.192967 10.6845 1.04853 8.26762 2.78005L9.43239 4.40588ZM16.65 2.19297C19.4975 2.19297 21.9023 2.9402 23.9118 4.4017L25.0882 2.78423C22.6977 1.04573 19.8692 0.192967 16.65 0.192967V2.19297ZM23.9176 4.40588C25.9834 5.88584 27.6279 7.98288 28.8336 10.7432L30.6664 9.9427C29.3387 6.90306 27.4833 4.50009 25.0824 2.78005L23.9176 4.40588ZM28.8353 10.7471C30.0346 13.4614 30.65 16.6685 30.65 20.393H32.65C32.65 16.4508 31.9987 12.9579 30.6647 9.9388L28.8353 10.7471ZM30.65 20.393C30.65 24.117 30.0348 27.3427 28.8336 30.0927L30.6664 30.8932C31.9986 27.8433 32.65 24.3356 32.65 20.393H30.65ZM28.8314 30.0978C27.6595 32.8217 26.031 34.921 23.9597 36.4358L25.1403 38.0501C27.5357 36.2983 29.3738 33.8976 30.6686 30.8882L28.8314 30.0978ZM23.9676 36.4301C21.9198 37.8971 19.5113 38.643 16.7 38.643V40.643C19.8887 40.643 22.7135 39.7888 25.1324 38.0559L23.9676 36.4301ZM16.75 34.443C18.6705 34.443 20.3571 33.8523 21.7525 32.6507L20.4475 31.1352C19.4429 32.0003 18.2296 32.443 16.75 32.443V34.443ZM21.7644 32.6404C23.1275 31.4287 24.1264 29.7615 24.8003 27.7043L22.8997 27.0817C22.3069 28.8911 21.4725 30.2239 20.4356 31.1456L21.7644 32.6404ZM24.7971 27.714C25.5075 25.6182 25.85 23.1712 25.85 20.393H23.85C23.85 23.0148 23.5258 25.2344 22.9029 27.0719L24.7971 27.714ZM25.85 20.393C25.85 17.6154 25.5077 15.1827 24.7954 13.117L22.9046 13.769C23.5256 15.5699 23.85 17.7705 23.85 20.393H25.85ZM24.8019 13.1364C24.1269 11.0406 23.1058 9.36084 21.6922 8.17645L20.4078 9.70949C21.4608 10.5918 22.3064 11.912 22.8981 13.7495L24.8019 13.1364ZM21.7025 8.1852C20.3034 6.98039 18.5985 6.39297 16.65 6.39297V8.39297C18.1682 8.39297 19.3966 8.83888 20.3975 9.70074L21.7025 8.1852ZM16.65 6.39297C14.7575 6.39297 13.0891 6.98689 11.6975 8.1852L13.0025 9.70074C14.0109 8.83237 15.2092 8.39297 16.65 8.39297V6.39297ZM11.6975 8.1852C10.3261 9.36608 9.30958 11.0373 8.60293 13.1219L10.4971 13.764C11.1238 11.9153 11.9739 10.5865 13.0025 9.70074L11.6975 8.1852ZM8.59969 13.1317C7.92467 15.1922 7.6 17.6196 7.6 20.393H9.6C9.6 17.7663 9.90866 15.5604 10.5003 13.7543L8.59969 13.1317ZM7.6 20.393C7.6 23.1351 7.92519 25.5598 8.59814 27.6495L10.5019 27.0364C9.90814 25.1928 9.6 22.9842 9.6 20.393H7.6ZM8.60463 27.669C9.31224 29.721 10.3269 31.3826 11.6856 32.5904L13.0144 31.0956C11.9731 30.17 11.1211 28.8316 10.4954 27.017L8.60463 27.669ZM11.6958 32.5993C13.1192 33.8303 14.8209 34.443 16.75 34.443V32.443C15.2791 32.443 14.0475 31.989 13.0042 31.0866L11.6958 32.5993ZM43.0504 39.043H42.0504V40.043H43.0504V39.043ZM43.0504 7.59297H44.0504V6.59297H43.0504V7.59297ZM35.8504 7.59297H34.8504V8.59297H35.8504V7.59297ZM35.8504 1.79297V0.792966H34.8504V1.79297H35.8504ZM49.8504 1.79297H50.8504V0.792966H49.8504V1.79297ZM49.8504 39.043V40.043H50.8504V39.043H49.8504ZM44.0504 39.043V7.59297H42.0504V39.043H44.0504ZM43.0504 6.59297H35.8504V8.59297H43.0504V6.59297ZM36.8504 7.59297V1.79297H34.8504V7.59297H36.8504ZM35.8504 2.79297H49.8504V0.792966H35.8504V2.79297ZM48.8504 1.79297V39.043H50.8504V1.79297H48.8504ZM49.8504 38.043H43.0504V40.043H49.8504V38.043Z"
        fill="#034833" mask="url(#path-1-outside-1_3749_1273)" />
</svg>
    