<svg width="63" height="41" viewBox="0 0 63 41" fill="none" xmlns="http://www.w3.org/2000/svg">
    <mask id="path-1-outside-1_3749_1286" maskUnits="userSpaceOnUse" x="0" y="0.0429688" width="63"
        height="41" fill="black">
        <rect fill="white" y="0.0429688" width="63" height="41" />
        <path
            d="M16.7 39.643C13.7333 39.643 11.1333 38.843 8.9 37.243C6.66667 35.643 4.91667 33.393 3.65 30.493C2.41667 27.593 1.8 24.2263 1.8 20.393C1.8 16.5263 2.41667 13.1596 3.65 10.293C4.88333 7.4263 6.61667 5.19297 8.85 3.59297C11.0833 1.99297 13.6833 1.19297 16.65 1.19297C19.6833 1.19297 22.3 1.99297 24.5 3.59297C26.7333 5.19297 28.4833 7.44297 29.75 10.343C31.0167 13.2096 31.65 16.5596 31.65 20.393C31.65 24.2263 31.0167 27.593 29.75 30.493C28.5167 33.3596 26.7833 35.6096 24.55 37.243C22.3167 38.843 19.7 39.643 16.7 39.643ZM16.75 33.443C18.45 33.443 19.9 32.9263 21.1 31.893C22.3 30.8263 23.2167 29.3263 23.85 27.393C24.5167 25.4263 24.85 23.093 24.85 20.393C24.85 17.693 24.5167 15.3763 23.85 13.443C23.2167 11.4763 22.2833 9.9763 21.05 8.94297C19.85 7.90963 18.3833 7.39297 16.65 7.39297C14.9833 7.39297 13.55 7.90963 12.35 8.94297C11.15 9.9763 10.2167 11.4763 9.55 13.443C8.91667 15.3763 8.6 17.693 8.6 20.393C8.6 23.0596 8.91667 25.3763 9.55 27.343C10.2167 29.2763 11.15 30.7763 12.35 31.843C13.5833 32.9096 15.05 33.443 16.75 33.443ZM36.7004 39.043V33.893L46.8004 23.343C48.8004 21.243 50.3337 19.5763 51.4004 18.343C52.5004 17.0763 53.2671 15.993 53.7004 15.093C54.1337 14.193 54.3504 13.2763 54.3504 12.343C54.3504 10.7763 53.8504 9.54297 52.8504 8.64297C51.8837 7.74297 50.6337 7.29297 49.1004 7.29297C47.5004 7.29297 46.1171 7.75963 44.9504 8.69297C43.7837 9.59297 42.9337 10.9263 42.4004 12.693L36.4504 10.843C36.8504 8.8763 37.6671 7.1763 38.9004 5.74297C40.1337 4.2763 41.6337 3.15963 43.4004 2.39297C45.2004 1.59297 47.1004 1.19297 49.1004 1.19297C51.5004 1.19297 53.6004 1.6263 55.4004 2.49297C57.2337 3.35963 58.6504 4.5763 59.6504 6.14297C60.6837 7.70963 61.2004 9.54297 61.2004 11.643C61.2004 12.9763 60.9504 14.293 60.4504 15.593C59.9504 16.893 59.2004 18.2263 58.2004 19.593C57.2004 20.9263 55.9004 22.4263 54.3004 24.093L45.5504 33.293H61.7004V39.043H36.7004Z" />
    </mask>
    <path
        d="M8.9 37.243L8.31762 38.0559L8.9 37.243ZM3.65 30.493L2.72972 30.8843L2.7336 30.8932L3.65 30.493ZM3.65 10.293L2.73141 9.89776H2.73141L3.65 10.293ZM8.85 3.59297L8.26762 2.78005L8.85 3.59297ZM24.5 3.59297L23.9118 4.40172L23.9176 4.40588L24.5 3.59297ZM29.75 10.343L28.8336 10.7432L28.8353 10.7471L29.75 10.343ZM29.75 30.493L28.8336 30.0927L28.8314 30.0978L29.75 30.493ZM24.55 37.243L25.1324 38.0559L25.1403 38.0501L24.55 37.243ZM21.1 31.893L21.7525 32.6507L21.7585 32.6456L21.7644 32.6404L21.1 31.893ZM23.85 27.393L22.9029 27.0719L22.8997 27.0817L23.85 27.393ZM23.85 13.443L22.8981 13.7495L22.9013 13.7593L22.9046 13.769L23.85 13.443ZM21.05 8.94297L20.3974 9.7008L20.4078 9.70949L21.05 8.94297ZM12.35 8.94297L11.6975 8.1852L11.6975 8.1852L12.35 8.94297ZM9.55 13.443L8.60289 13.1219L8.59969 13.1317L9.55 13.443ZM9.55 27.343L8.59814 27.6495L8.60128 27.6593L8.60463 27.669L9.55 27.343ZM12.35 31.843L11.6856 32.5904L11.6958 32.5993L12.35 31.843ZM16.7 38.643C13.9246 38.643 11.5321 37.8985 9.48239 36.4301L8.31762 38.0559C10.7345 39.7874 13.542 40.643 16.7 40.643V38.643ZM9.48239 36.4301C7.4166 34.9501 5.77207 32.8531 4.5664 30.0927L2.7336 30.8932C4.06126 33.9329 5.91673 36.3358 8.31762 38.0559L9.48239 36.4301ZM4.57024 30.1016C3.39962 27.3491 2.8 24.1202 2.8 20.393H0.8C0.8 24.3324 1.43372 27.8369 2.72976 30.8843L4.57024 30.1016ZM2.8 20.393C2.8 16.6307 3.40016 13.404 4.56859 10.6882L2.73141 9.89776C1.43317 12.9153 0.8 16.4219 0.8 20.393H2.8ZM4.56859 10.6882C5.73996 7.96553 7.36634 5.88603 9.43239 4.40588L8.26762 2.78005C5.86699 4.4999 4.0267 6.88707 2.73141 9.89776L4.56859 10.6882ZM9.43239 4.40588C11.4821 2.93741 13.8746 2.19297 16.65 2.19297V0.192967C13.492 0.192967 10.6845 1.04853 8.26762 2.78005L9.43239 4.40588ZM16.65 2.19297C19.4975 2.19297 21.9023 2.9402 23.9118 4.4017L25.0882 2.78423C22.6977 1.04573 19.8692 0.192967 16.65 0.192967V2.19297ZM23.9176 4.40588C25.9834 5.88584 27.6279 7.98288 28.8336 10.7432L30.6664 9.9427C29.3387 6.90306 27.4833 4.50009 25.0824 2.78005L23.9176 4.40588ZM28.8353 10.7471C30.0346 13.4614 30.65 16.6685 30.65 20.393H32.65C32.65 16.4508 31.9987 12.9579 30.6647 9.9388L28.8353 10.7471ZM30.65 20.393C30.65 24.117 30.0348 27.3427 28.8336 30.0927L30.6664 30.8932C31.9986 27.8433 32.65 24.3356 32.65 20.393H30.65ZM28.8314 30.0978C27.6595 32.8217 26.031 34.921 23.9597 36.4358L25.1403 38.0501C27.5357 36.2983 29.3738 33.8976 30.6686 30.8882L28.8314 30.0978ZM23.9676 36.4301C21.9198 37.8971 19.5113 38.643 16.7 38.643V40.643C19.8887 40.643 22.7135 39.7888 25.1324 38.0559L23.9676 36.4301ZM16.75 34.443C18.6705 34.443 20.3571 33.8523 21.7525 32.6507L20.4475 31.1352C19.4429 32.0003 18.2296 32.443 16.75 32.443V34.443ZM21.7644 32.6404C23.1275 31.4287 24.1264 29.7615 24.8003 27.7043L22.8997 27.0817C22.3069 28.8911 21.4725 30.2239 20.4356 31.1456L21.7644 32.6404ZM24.7971 27.714C25.5075 25.6182 25.85 23.1712 25.85 20.393H23.85C23.85 23.0148 23.5258 25.2344 22.9029 27.0719L24.7971 27.714ZM25.85 20.393C25.85 17.6154 25.5077 15.1827 24.7954 13.117L22.9046 13.769C23.5256 15.5699 23.85 17.7705 23.85 20.393H25.85ZM24.8019 13.1364C24.1269 11.0406 23.1058 9.36084 21.6922 8.17645L20.4078 9.70949C21.4608 10.5918 22.3064 11.912 22.8981 13.7495L24.8019 13.1364ZM21.7025 8.1852C20.3034 6.98039 18.5985 6.39297 16.65 6.39297V8.39297C18.1682 8.39297 19.3966 8.83888 20.3975 9.70074L21.7025 8.1852ZM16.65 6.39297C14.7575 6.39297 13.0891 6.98689 11.6975 8.1852L13.0025 9.70074C14.0109 8.83237 15.2092 8.39297 16.65 8.39297V6.39297ZM11.6975 8.1852C10.3261 9.36608 9.30958 11.0373 8.60293 13.1219L10.4971 13.764C11.1238 11.9153 11.9739 10.5865 13.0025 9.70074L11.6975 8.1852ZM8.59969 13.1317C7.92467 15.1922 7.6 17.6196 7.6 20.393H9.6C9.6 17.7663 9.90866 15.5604 10.5003 13.7543L8.59969 13.1317ZM7.6 20.393C7.6 23.1351 7.92519 25.5598 8.59814 27.6495L10.5019 27.0364C9.90814 25.1928 9.6 22.9842 9.6 20.393H7.6ZM8.60463 27.669C9.31224 29.721 10.3269 31.3826 11.6856 32.5904L13.0144 31.0956C11.9731 30.17 11.1211 28.8316 10.4954 27.017L8.60463 27.669ZM11.6958 32.5993C13.1192 33.8303 14.8209 34.443 16.75 34.443V32.443C15.2791 32.443 14.0475 31.989 13.0042 31.0866L11.6958 32.5993ZM36.7004 39.043H35.7004V40.043H36.7004V39.043ZM36.7004 33.893L35.978 33.2014L35.7004 33.4915V33.893H36.7004ZM46.8004 23.343L47.5227 24.0345L47.5245 24.0326L46.8004 23.343ZM51.4004 18.343L50.6454 17.6873L50.644 17.6888L51.4004 18.343ZM53.7004 15.093L52.7994 14.6592V14.6592L53.7004 15.093ZM52.8504 8.64297L52.169 9.37486L52.1752 9.38061L52.1814 9.38626L52.8504 8.64297ZM44.9504 8.69297L45.5612 9.48475L45.5682 9.47935L45.5751 9.47383L44.9504 8.69297ZM42.4004 12.693L42.1035 13.6479L43.0663 13.9472L43.3577 12.982L42.4004 12.693ZM36.4504 10.843L35.4705 10.6437L35.2903 11.5295L36.1535 11.7979L36.4504 10.843ZM38.9004 5.74297L39.6585 6.39525L39.6658 6.38657L38.9004 5.74297ZM43.4004 2.39297L43.7985 3.31035L43.8065 3.30678L43.4004 2.39297ZM55.4004 2.49297L54.9666 3.39399L54.973 3.39704L55.4004 2.49297ZM59.6504 6.14297L58.8075 6.681L58.8115 6.68731L58.8156 6.69356L59.6504 6.14297ZM58.2004 19.593L59.0004 20.193L59.0074 20.1835L58.2004 19.593ZM54.3004 24.093L53.579 23.4004L53.5758 23.4038L54.3004 24.093ZM45.5504 33.293L44.8258 32.6038L43.2192 34.293H45.5504V33.293ZM61.7004 33.293H62.7004V32.293H61.7004V33.293ZM61.7004 39.043V40.043H62.7004V39.043H61.7004ZM37.7004 39.043V33.893H35.7004V39.043H37.7004ZM37.4227 34.5845L47.5227 24.0345L46.078 22.6514L35.978 33.2014L37.4227 34.5845ZM47.5245 24.0326C49.5285 21.9284 51.0746 20.2484 52.1568 18.9971L50.644 17.6888C49.5929 18.9042 48.0723 20.5575 46.0763 22.6533L47.5245 24.0326ZM52.1554 18.9987C53.28 17.7037 54.1122 16.5428 54.6014 15.5268L52.7994 14.6592C52.4219 15.4431 51.7208 16.4489 50.6454 17.6873L52.1554 18.9987ZM54.6014 15.5268C55.0952 14.5012 55.3504 13.4369 55.3504 12.343H53.3504C53.3504 13.1157 53.1722 13.8848 52.7994 14.6592L54.6014 15.5268ZM55.3504 12.343C55.3504 10.5441 54.7654 9.02109 53.5194 7.89967L52.1814 9.38626C52.9354 10.0648 53.3504 11.0085 53.3504 12.343H55.3504ZM53.5318 7.91107C52.3505 6.81123 50.8431 6.29297 49.1004 6.29297V8.29297C50.4244 8.29297 51.417 8.6747 52.169 9.37486L53.5318 7.91107ZM49.1004 6.29297C47.2906 6.29297 45.6827 6.82649 44.3257 7.9121L45.5751 9.47383C46.5514 8.69277 47.7102 8.29297 49.1004 8.29297V6.29297ZM44.3396 7.90118C42.9702 8.95754 42.0213 10.4885 41.4431 12.404L43.3577 12.982C43.8461 11.3641 44.5972 10.2284 45.5612 9.48475L44.3396 7.90118ZM42.6973 11.7381L36.7473 9.88806L36.1535 11.7979L42.1035 13.6479L42.6973 11.7381ZM37.4303 11.0423C37.7984 9.23244 38.5434 7.69103 39.6584 6.39521L38.1424 5.09073C36.7907 6.66158 35.9024 8.52016 35.4705 10.6437L37.4303 11.0423ZM39.6658 6.38657C40.799 5.03895 42.173 4.01569 43.7985 3.31031L43.0023 1.47562C41.0944 2.30357 39.4685 3.51365 38.135 5.09937L39.6658 6.38657ZM43.8065 3.30678C45.4767 2.5645 47.2381 2.19297 49.1004 2.19297V0.192967C46.9627 0.192967 44.9241 0.621438 42.9943 1.47916L43.8065 3.30678ZM49.1004 2.19297C51.38 2.19297 53.3264 2.60428 54.9666 3.39397L55.8342 1.59197C53.8743 0.648324 51.6208 0.192967 49.1004 0.192967V2.19297ZM54.973 3.39704C56.6522 4.19085 57.9179 5.28739 58.8075 6.681L60.4933 5.60493C59.3829 3.86521 57.8152 2.52842 55.8278 1.5889L54.973 3.39704ZM58.8156 6.69356C59.7286 8.0778 60.2004 9.71461 60.2004 11.643H62.2004C62.2004 9.37133 61.6388 7.34147 60.4852 5.59237L58.8156 6.69356ZM60.2004 11.643C60.2004 12.8481 59.975 14.0434 59.517 15.234L61.3837 15.9519C61.9258 14.5426 62.2004 13.1045 62.2004 11.643H60.2004ZM59.517 15.234C59.0547 16.4361 58.352 17.6923 57.3934 19.0025L59.0074 20.1835C60.0488 18.7603 60.8461 17.3498 61.3837 15.9519L59.517 15.234ZM57.4004 18.993C56.4319 20.2842 55.1608 21.7527 53.579 23.4004L55.0218 24.7855C56.64 23.0999 57.9688 21.5684 59.0004 20.193L57.4004 18.993ZM53.5758 23.4038L44.8258 32.6038L46.275 33.9821L55.025 24.7821L53.5758 23.4038ZM45.5504 34.293H61.7004V32.293H45.5504V34.293ZM60.7004 33.293V39.043H62.7004V33.293H60.7004ZM61.7004 38.043H36.7004V40.043H61.7004V38.043Z"
        fill="#034833" mask="url(#path-1-outside-1_3749_1286)" />
</svg>
    