<svg width="64" height="41" viewBox="0 0 64 41" fill="none" xmlns="http://www.w3.org/2000/svg">
    <mask id="path-1-outside-1_3749_1282" maskUnits="userSpaceOnUse" x="0" y="0.0429688" width="64"
        height="41" fill="black">
        <rect fill="white" y="0.0429688" width="64" height="41" />
        <path
            d="M16.7 39.643C13.7333 39.643 11.1333 38.843 8.9 37.243C6.66667 35.643 4.91667 33.393 3.65 30.493C2.41667 27.593 1.8 24.2263 1.8 20.393C1.8 16.5263 2.41667 13.1596 3.65 10.293C4.88333 7.4263 6.61667 5.19297 8.85 3.59297C11.0833 1.99297 13.6833 1.19297 16.65 1.19297C19.6833 1.19297 22.3 1.99297 24.5 3.59297C26.7333 5.19297 28.4833 7.44297 29.75 10.343C31.0167 13.2096 31.65 16.5596 31.65 20.393C31.65 24.2263 31.0167 27.593 29.75 30.493C28.5167 33.3596 26.7833 35.6096 24.55 37.243C22.3167 38.843 19.7 39.643 16.7 39.643ZM16.75 33.443C18.45 33.443 19.9 32.9263 21.1 31.893C22.3 30.8263 23.2167 29.3263 23.85 27.393C24.5167 25.4263 24.85 23.093 24.85 20.393C24.85 17.693 24.5167 15.3763 23.85 13.443C23.2167 11.4763 22.2833 9.9763 21.05 8.94297C19.85 7.90963 18.3833 7.39297 16.65 7.39297C14.9833 7.39297 13.55 7.90963 12.35 8.94297C11.15 9.9763 10.2167 11.4763 9.55 13.443C8.91667 15.3763 8.6 17.693 8.6 20.393C8.6 23.0596 8.91667 25.3763 9.55 27.343C10.2167 29.2763 11.15 30.7763 12.35 31.843C13.5833 32.9096 15.05 33.443 16.75 33.443ZM49.0504 39.643C47.0171 39.643 45.0837 39.2763 43.2504 38.543C41.4504 37.7763 39.9004 36.7096 38.6004 35.343C37.3337 33.943 36.4671 32.293 36.0004 30.393L41.9504 28.293C42.5504 29.993 43.4671 31.293 44.7004 32.193C45.9337 33.0596 47.3837 33.493 49.0504 33.493C50.3837 33.493 51.5337 33.243 52.5004 32.743C53.5004 32.243 54.2837 31.5263 54.8504 30.593C55.4171 29.6263 55.7004 28.493 55.7004 27.193C55.7004 25.893 55.4171 24.793 54.8504 23.893C54.3171 22.9596 53.5504 22.243 52.5504 21.743C51.5504 21.243 50.3671 20.993 49.0004 20.993C48.3671 20.993 47.7004 21.0596 47.0004 21.193C46.3337 21.3263 45.7337 21.5263 45.2004 21.793L43.6504 18.543L53.3004 7.54297H38.1004V1.79297H60.9504V7.14297L51.2504 18.493L51.3504 15.943C53.5837 15.9763 55.5337 16.4596 57.2004 17.393C58.8671 18.3263 60.1671 19.6096 61.1004 21.243C62.0337 22.8763 62.5004 24.793 62.5004 26.993C62.5004 29.393 61.9171 31.5596 60.7504 33.493C59.5837 35.393 57.9837 36.893 55.9504 37.993C53.9171 39.093 51.6171 39.643 49.0504 39.643Z" />
    </mask>
    <path
        d="M8.9 37.243L8.31762 38.0559L8.9 37.243ZM3.65 30.493L2.72972 30.8843L2.7336 30.8932L3.65 30.493ZM3.65 10.293L2.73141 9.89776H2.73141L3.65 10.293ZM8.85 3.59297L8.26762 2.78005L8.85 3.59297ZM24.5 3.59297L23.9118 4.40172L23.9176 4.40588L24.5 3.59297ZM29.75 10.343L28.8336 10.7432L28.8353 10.7471L29.75 10.343ZM29.75 30.493L28.8336 30.0927L28.8314 30.0978L29.75 30.493ZM24.55 37.243L25.1324 38.0559L25.1403 38.0501L24.55 37.243ZM21.1 31.893L21.7525 32.6507L21.7585 32.6456L21.7644 32.6404L21.1 31.893ZM23.85 27.393L22.9029 27.0719L22.8997 27.0817L23.85 27.393ZM23.85 13.443L22.8981 13.7495L22.9013 13.7593L22.9046 13.769L23.85 13.443ZM21.05 8.94297L20.3974 9.7008L20.4078 9.70949L21.05 8.94297ZM12.35 8.94297L11.6975 8.1852L11.6975 8.1852L12.35 8.94297ZM9.55 13.443L8.60289 13.1219L8.59969 13.1317L9.55 13.443ZM9.55 27.343L8.59814 27.6495L8.60128 27.6593L8.60463 27.669L9.55 27.343ZM12.35 31.843L11.6856 32.5904L11.6958 32.5993L12.35 31.843ZM16.7 38.643C13.9246 38.643 11.5321 37.8985 9.48239 36.4301L8.31762 38.0559C10.7345 39.7874 13.542 40.643 16.7 40.643V38.643ZM9.48239 36.4301C7.4166 34.9501 5.77207 32.8531 4.5664 30.0927L2.7336 30.8932C4.06126 33.9329 5.91673 36.3358 8.31762 38.0559L9.48239 36.4301ZM4.57024 30.1016C3.39962 27.3491 2.8 24.1202 2.8 20.393H0.8C0.8 24.3324 1.43372 27.8369 2.72976 30.8843L4.57024 30.1016ZM2.8 20.393C2.8 16.6307 3.40016 13.404 4.56859 10.6882L2.73141 9.89776C1.43317 12.9153 0.8 16.4219 0.8 20.393H2.8ZM4.56859 10.6882C5.73996 7.96553 7.36634 5.88603 9.43239 4.40588L8.26762 2.78005C5.86699 4.4999 4.0267 6.88707 2.73141 9.89776L4.56859 10.6882ZM9.43239 4.40588C11.4821 2.93741 13.8746 2.19297 16.65 2.19297V0.192967C13.492 0.192967 10.6845 1.04853 8.26762 2.78005L9.43239 4.40588ZM16.65 2.19297C19.4975 2.19297 21.9023 2.9402 23.9118 4.4017L25.0882 2.78423C22.6977 1.04573 19.8692 0.192967 16.65 0.192967V2.19297ZM23.9176 4.40588C25.9834 5.88584 27.6279 7.98288 28.8336 10.7432L30.6664 9.9427C29.3387 6.90306 27.4833 4.50009 25.0824 2.78005L23.9176 4.40588ZM28.8353 10.7471C30.0346 13.4614 30.65 16.6685 30.65 20.393H32.65C32.65 16.4508 31.9987 12.9579 30.6647 9.9388L28.8353 10.7471ZM30.65 20.393C30.65 24.117 30.0348 27.3427 28.8336 30.0927L30.6664 30.8932C31.9986 27.8433 32.65 24.3356 32.65 20.393H30.65ZM28.8314 30.0978C27.6595 32.8217 26.031 34.921 23.9597 36.4358L25.1403 38.0501C27.5357 36.2983 29.3738 33.8976 30.6686 30.8882L28.8314 30.0978ZM23.9676 36.4301C21.9198 37.8971 19.5113 38.643 16.7 38.643V40.643C19.8887 40.643 22.7135 39.7888 25.1324 38.0559L23.9676 36.4301ZM16.75 34.443C18.6705 34.443 20.3571 33.8523 21.7525 32.6507L20.4475 31.1352C19.4429 32.0003 18.2296 32.443 16.75 32.443V34.443ZM21.7644 32.6404C23.1275 31.4287 24.1264 29.7615 24.8003 27.7043L22.8997 27.0817C22.3069 28.8911 21.4725 30.2239 20.4356 31.1456L21.7644 32.6404ZM24.7971 27.714C25.5075 25.6182 25.85 23.1712 25.85 20.393H23.85C23.85 23.0148 23.5258 25.2344 22.9029 27.0719L24.7971 27.714ZM25.85 20.393C25.85 17.6154 25.5077 15.1827 24.7954 13.117L22.9046 13.769C23.5256 15.5699 23.85 17.7705 23.85 20.393H25.85ZM24.8019 13.1364C24.1269 11.0406 23.1058 9.36084 21.6922 8.17645L20.4078 9.70949C21.4608 10.5918 22.3064 11.912 22.8981 13.7495L24.8019 13.1364ZM21.7025 8.1852C20.3034 6.98039 18.5985 6.39297 16.65 6.39297V8.39297C18.1682 8.39297 19.3966 8.83888 20.3975 9.70074L21.7025 8.1852ZM16.65 6.39297C14.7575 6.39297 13.0891 6.98689 11.6975 8.1852L13.0025 9.70074C14.0109 8.83237 15.2092 8.39297 16.65 8.39297V6.39297ZM11.6975 8.1852C10.3261 9.36608 9.30958 11.0373 8.60293 13.1219L10.4971 13.764C11.1238 11.9153 11.9739 10.5865 13.0025 9.70074L11.6975 8.1852ZM8.59969 13.1317C7.92467 15.1922 7.6 17.6196 7.6 20.393H9.6C9.6 17.7663 9.90866 15.5604 10.5003 13.7543L8.59969 13.1317ZM7.6 20.393C7.6 23.1351 7.92519 25.5598 8.59814 27.6495L10.5019 27.0364C9.90814 25.1928 9.6 22.9842 9.6 20.393H7.6ZM8.60463 27.669C9.31224 29.721 10.3269 31.3826 11.6856 32.5904L13.0144 31.0956C11.9731 30.17 11.1211 28.8316 10.4954 27.017L8.60463 27.669ZM11.6958 32.5993C13.1192 33.8303 14.8209 34.443 16.75 34.443V32.443C15.2791 32.443 14.0475 31.989 13.0042 31.0866L11.6958 32.5993ZM43.2504 38.543L42.8585 39.463L42.8687 39.4673L42.879 39.4714L43.2504 38.543ZM38.6004 35.343L37.8589 36.0139L37.8672 36.0231L37.8758 36.0322L38.6004 35.343ZM36.0004 30.393L35.6676 29.45L34.8131 29.7515L35.0293 30.6315L36.0004 30.393ZM41.9504 28.293L42.8934 27.9601L42.5606 27.0172L41.6176 27.35L41.9504 28.293ZM44.7004 32.193L44.1109 33.0008L44.1181 33.006L44.1254 33.0112L44.7004 32.193ZM52.5004 32.743L52.0531 31.8485L52.041 31.8548L52.5004 32.743ZM54.8504 30.593L55.7052 31.1119L55.7092 31.1053L55.7131 31.0987L54.8504 30.593ZM54.8504 23.893L53.9821 24.3891L53.9928 24.4077L54.0042 24.4258L54.8504 23.893ZM52.5504 21.743L52.1032 22.6374L52.5504 21.743ZM47.0004 21.193L46.8133 20.2106L46.8043 20.2124L47.0004 21.193ZM45.2004 21.793L44.2978 22.2234L44.7364 23.143L45.6476 22.6874L45.2004 21.793ZM43.6504 18.543L42.8987 17.8835L42.4642 18.3788L42.7478 18.9734L43.6504 18.543ZM53.3004 7.54297L54.0521 8.20244L55.5079 6.54297H53.3004V7.54297ZM38.1004 7.54297H37.1004V8.54297H38.1004V7.54297ZM38.1004 1.79297V0.792966H37.1004V1.79297H38.1004ZM60.9504 1.79297H61.9504V0.792966H60.9504V1.79297ZM60.9504 7.14297L61.7106 7.79266L61.9504 7.51207V7.14297H60.9504ZM51.2504 18.493L50.2512 18.4538L50.1382 21.3335L52.0106 19.1427L51.2504 18.493ZM51.3504 15.943L51.3653 14.9431L50.3894 14.9285L50.3512 15.9038L51.3504 15.943ZM61.1004 21.243L60.2322 21.7391L61.1004 21.243ZM60.7504 33.493L61.6026 34.0162L61.6066 34.0096L60.7504 33.493ZM55.9504 37.993L56.4262 38.8725H56.4262L55.9504 37.993ZM49.0504 38.643C47.1404 38.643 45.3335 38.2992 43.6218 37.6145L42.879 39.4714C44.834 40.2534 46.8937 40.643 49.0504 40.643V38.643ZM43.6423 37.6229C41.963 36.9077 40.5274 35.9179 39.3249 34.6538L37.8758 36.0322C39.2733 37.5014 40.9378 38.6449 42.8585 39.463L43.6423 37.6229ZM39.3419 34.6721C38.1906 33.3995 37.4002 31.8996 36.9715 30.1544L35.0293 30.6315C35.534 32.6864 36.4769 34.4865 37.8589 36.0139L39.3419 34.6721ZM36.3332 31.336L42.2832 29.236L41.6176 27.35L35.6676 29.45L36.3332 31.336ZM41.0074 28.6258C41.6622 30.481 42.6867 31.9615 44.1109 33.0008L45.2899 31.3852C44.2474 30.6244 43.4386 29.505 42.8934 27.9601L41.0074 28.6258ZM44.1254 33.0112C45.5449 34.0086 47.2007 34.493 49.0504 34.493V32.493C47.5668 32.493 46.3226 32.1107 45.2753 31.3748L44.1254 33.0112ZM49.0504 34.493C50.5081 34.493 51.8227 34.2194 52.9598 33.6312L52.041 31.8548C51.2448 32.2666 50.2593 32.493 49.0504 32.493V34.493ZM52.9476 33.6374C54.1119 33.0553 55.0383 32.2103 55.7052 31.1119L53.9956 30.074C53.5292 30.8423 52.8889 31.4307 52.0532 31.8485L52.9476 33.6374ZM55.7131 31.0987C56.3832 29.9555 56.7004 28.6419 56.7004 27.193H54.7004C54.7004 28.344 54.4509 29.2971 53.9877 30.0872L55.7131 31.0987ZM56.7004 27.193C56.7004 25.7465 56.384 24.4519 55.6966 23.3602L54.0042 24.4258C54.4501 25.134 54.7004 26.0395 54.7004 27.193H56.7004ZM55.7186 23.3968C55.0833 22.285 54.1667 21.4331 52.9976 20.8485L52.1032 22.6374C52.9341 23.0528 53.5508 23.6343 53.9821 24.3891L55.7186 23.3968ZM52.9976 20.8485C51.8313 20.2654 50.4883 19.993 49.0004 19.993V21.993C50.2458 21.993 51.2695 22.2206 52.1032 22.6374L52.9976 20.8485ZM49.0004 19.993C48.297 19.993 47.5674 20.067 46.8133 20.2106L47.1875 22.1753C47.8334 22.0523 48.4371 21.993 49.0004 21.993V19.993ZM46.8043 20.2124C46.0624 20.3608 45.3762 20.587 44.7532 20.8985L45.6476 22.6874C46.0912 22.4656 46.605 22.2918 47.1965 22.1735L46.8043 20.2124ZM46.103 21.3625L44.553 18.1125L42.7478 18.9734L44.2978 22.2234L46.103 21.3625ZM44.4021 19.2024L54.0521 8.20244L52.5487 6.88349L42.8987 17.8835L44.4021 19.2024ZM53.3004 6.54297H38.1004V8.54297H53.3004V6.54297ZM39.1004 7.54297V1.79297H37.1004V7.54297H39.1004ZM38.1004 2.79297H60.9504V0.792966H38.1004V2.79297ZM59.9504 1.79297V7.14297H61.9504V1.79297H59.9504ZM60.1902 6.49328L50.4902 17.8433L52.0106 19.1427L61.7106 7.79266L60.1902 6.49328ZM52.2496 18.5322L52.3496 15.9822L50.3512 15.9038L50.2512 18.4538L52.2496 18.5322ZM51.3355 16.9429C53.431 16.9741 55.2128 17.426 56.7118 18.2655L57.689 16.5205C55.8547 15.4933 53.7365 14.9785 51.3653 14.9431L51.3355 16.9429ZM56.7118 18.2655C58.2227 19.1116 59.3903 20.2659 60.2322 21.7391L61.9686 20.7468C60.9438 18.9534 59.5114 17.541 57.689 16.5205L56.7118 18.2655ZM60.2322 21.7391C61.0655 23.1975 61.5004 24.9373 61.5004 26.993H63.5004C63.5004 24.6487 63.002 22.5551 61.9686 20.7468L60.2322 21.7391ZM61.5004 26.993C61.5004 29.2228 60.9608 31.2088 59.8942 32.9763L61.6066 34.0096C62.8733 31.9105 63.5004 29.5632 63.5004 26.993H61.5004ZM59.8982 32.9697C58.827 34.7143 57.3593 36.0938 55.4746 37.1134L56.4262 38.8725C58.6082 37.6921 60.3405 36.0717 61.6026 34.0162L59.8982 32.9697ZM55.4746 37.1134C53.603 38.1259 51.4696 38.643 49.0504 38.643V40.643C51.7645 40.643 54.2312 40.06 56.4262 38.8725L55.4746 37.1134Z"
        fill="#034833" mask="url(#path-1-outside-1_3749_1282)" />
</svg>
    