<?xml version="1.0" standalone="no"?>
<!DOCTYPE svg PUBLIC "-//W3C//DTD SVG 20010904//EN"
 "http://www.w3.org/TR/2001/REC-SVG-20010904/DTD/svg10.dtd">
<svg version="1.0" xmlns="http://www.w3.org/2000/svg"
 width="1600.000000pt" height="942.000000pt" viewBox="0 0 1600.000000 942.000000"
 preserveAspectRatio="xMidYMid meet">

    <g transform="translate(0.000000,942.000000) scale(0.100000,-0.100000)"
        fill="#83CD20" stroke="none">
<path d="M14265 8444 c-327 -44 -777 -181 -1337 -408 -633 -256 -1602 -674
-2927 -1262 -129 -57 -241 -104 -250 -104 -17 0 -213 49 -219 54 -1 2 9 21 23
42 106 157 49 417 -133 608 -96 100 -206 120 -394 72 -137 -35 -247 -93 -657
-350 -84 -53 -163 -96 -174 -96 -11 0 -210 41 -441 91 -232 50 -533 115 -671
144 -137 30 -482 104 -765 165 -283 61 -607 131 -720 155 -113 24 -468 101
-790 170 -322 70 -614 132 -650 140 -179 37 -298 63 -815 174 -586 127 -1195
258 -1475 317 -91 19 -196 42 -235 52 -50 12 -110 17 -210 17 -129 -1 -146 -3
-210 -28 -65 -26 -221 -123 -272 -170 -28 -25 -29 -53 -4 -67 11 -5 120 -48
243 -94 299 -113 806 -318 1663 -671 298 -123 474 -195 595 -245 58 -24 106
-44 108 -45 2 -1 -7 -19 -19 -39 -12 -20 -19 -40 -15 -43 3 -4 42 1 85 11 l80
17 173 -72 c95 -39 265 -110 378 -156 113 -47 273 -113 355 -148 83 -35 207
-86 277 -115 l127 -52 -31 -55 c-17 -29 -29 -55 -27 -57 2 -2 47 8 99 21 113
29 104 31 320 -60 85 -36 242 -101 347 -145 135 -56 234 -106 330 -165 205
-125 605 -371 630 -387 21 -14 21 -14 -21 -51 -45 -40 -85 -103 -72 -116 17
-17 199 -7 256 14 l55 20 42 -26 41 -26 -76 -29 c-149 -56 -716 -303 -1104
-482 -65 -30 -173 -79 -240 -110 -68 -31 -141 -65 -162 -75 -47 -22 -20 -36
-256 131 -91 64 -250 177 -355 250 -240 169 -470 339 -605 449 -99 81 -471
388 -570 471 -134 113 -148 120 -213 100 -81 -24 -557 -233 -557 -244 0 -6
117 -418 259 -916 142 -498 257 -906 256 -908 -2 -2 -259 47 -571 108 -633
123 -1608 310 -1754 335 -111 19 -150 16 -292 -26 -240 -70 -348 -121 -316
-146 7 -6 213 -101 458 -213 458 -208 1242 -566 1525 -695 88 -40 274 -125
414 -189 140 -63 258 -119 263 -124 4 -4 -16 -39 -46 -76 -75 -95 -108 -163
-104 -217 3 -40 7 -46 43 -64 34 -17 59 -20 170 -19 72 0 192 9 269 18 l138
18 86 -88 c47 -49 286 -294 532 -544 246 -250 558 -569 695 -707 136 -139 255
-253 264 -253 9 0 105 41 213 91 173 80 198 95 207 121 12 34 16 6 -91 553
-44 226 -84 435 -89 465 -6 30 -32 169 -59 309 -28 140 -49 256 -47 258 2 1
77 16 168 33 1109 200 1700 369 2409 690 l205 93 130 8 c310 20 574 73 852
170 111 40 115 40 141 23 29 -19 662 -491 676 -504 5 -5 -16 -39 -48 -76 -31
-38 -56 -72 -56 -76 0 -13 172 -9 228 6 l53 15 217 -163 c192 -144 225 -174
286 -252 78 -99 202 -256 254 -322 l34 -42 -41 -47 c-39 -44 -52 -73 -32 -73
6 0 40 7 77 16 40 9 70 11 73 6 9 -13 148 -190 358 -453 99 -125 184 -232 187
-237 3 -6 -6 -31 -20 -56 l-26 -46 24 0 c13 0 39 4 58 10 19 6 36 6 39 1 4 -5
36 -44 73 -88 36 -43 114 -143 172 -223 58 -80 109 -149 113 -155 5 -5 30 -43
57 -82 29 -43 53 -70 60 -66 6 3 8 2 3 -2 -4 -5 0 -20 9 -34 58 -90 427 -602
468 -649 30 -34 32 -34 91 -29 80 7 243 88 314 157 29 27 68 62 87 77 49 37
56 59 38 134 -8 35 -58 253 -110 484 -96 425 -110 486 -144 630 -11 44 -42
181 -69 305 -28 124 -100 445 -160 713 -61 268 -111 496 -111 505 0 12 23 25
88 46 275 91 710 314 976 501 50 35 103 75 118 89 85 81 71 324 -27 486 -50
82 -149 178 -213 208 -51 23 -62 24 -161 19 -118 -6 -183 -24 -365 -102 -116
-49 -382 -180 -534 -263 -61 -33 -95 -47 -97 -39 -3 7 -57 248 -120 536 -111
503 -115 524 -97 537 10 7 61 47 112 89 51 42 105 82 119 89 14 8 170 75 346
151 814 349 1139 496 1545 701 519 261 704 382 957 628 221 214 361 402 484
651 104 212 120 307 63 374 -27 33 -131 79 -239 106 -57 15 -79 26 -116 62
-41 40 -60 49 -175 84 -220 67 -298 79 -501 78 -98 -1 -223 -7 -278 -15z m395
-30 c0 -4 -14 -31 -31 -60 -25 -44 -35 -53 -52 -50 -12 3 -43 8 -69 11 -38 5
-48 10 -48 25 0 30 34 62 76 70 50 10 124 12 124 4z m147 -10 c54 -8 99 -17
101 -19 2 -2 -6 -17 -18 -33 -21 -29 -26 -30 -127 -37 -57 -4 -107 -5 -109 -2
-6 5 43 107 51 107 3 0 49 -7 102 -16z m344 -70 c5 -3 9 -16 9 -30 0 -20 -4
-24 -22 -20 -13 3 -59 10 -103 16 -121 17 -119 16 -95 49 l20 28 91 -18 c50
-10 95 -21 100 -25z m-2065 -426 c-8 -49 -20 -64 -58 -73 -26 -7 -26 -6 -17
32 5 21 9 41 9 45 0 8 50 37 64 38 5 0 6 -19 2 -42z m-150 -50 c-3 -13 -6 -31
-6 -41 0 -16 -53 -57 -73 -57 -8 0 -4 36 9 81 5 17 38 37 63 38 9 1 11 -6 7
-21z m-149 -52 c-3 -8 -9 -30 -12 -49 -4 -20 -14 -37 -23 -40 -10 -3 -25 -8
-34 -12 -21 -8 -23 3 -8 57 8 26 18 39 38 46 38 14 45 14 39 -2z m-162 -99
c-6 -39 -11 -47 -38 -56 -44 -16 -45 -15 -34 33 8 34 17 47 41 59 17 8 32 13
34 12 2 -2 0 -24 -3 -48z m-145 -23 c0 -3 -5 -24 -11 -48 -9 -37 -16 -45 -45
-54 -19 -5 -34 -8 -34 -5 0 2 5 24 11 48 8 33 18 46 38 54 32 11 41 13 41 5z
m-154 -71 c-2 -10 -7 -32 -11 -50 -5 -24 -14 -34 -37 -42 -17 -6 -33 -10 -34
-8 -2 2 -1 20 3 41 4 28 14 43 37 57 39 24 49 24 42 2z m-156 -67 c0 -46 -14
-75 -41 -87 -38 -15 -43 -9 -32 38 6 25 17 42 33 50 32 16 40 16 40 -1z m-150
-58 c0 -45 -22 -84 -52 -96 -17 -6 -33 -10 -34 -9 -2 1 2 22 8 45 7 29 19 47
37 57 33 18 41 18 41 3z m-161 -95 c-5 -21 -9 -41 -9 -45 0 -7 -61 -30 -67
-25 -2 2 0 21 5 43 5 26 16 43 32 51 42 21 49 17 39 -24z m-150 -60 c-5 -21
-9 -41 -9 -44 0 -9 -60 -33 -66 -26 -3 3 -2 21 2 41 4 25 15 41 33 51 43 23
50 19 40 -22z m-156 -83 c-6 -23 -18 -36 -41 -45 -30 -13 -32 -13 -32 8 0 45
13 69 44 82 36 16 42 7 29 -45z m-146 -27 c-3 -10 -8 -30 -11 -45 -4 -18 -16
-29 -38 -37 -17 -6 -33 -9 -35 -7 -12 11 19 84 39 94 34 16 50 14 45 -5z
m-397 -167 c0 -48 -14 -75 -43 -85 -44 -16 -46 -15 -35 29 7 27 19 45 37 55
33 18 41 18 41 1z m-325 -148 c-12 -60 -15 -65 -50 -75 -39 -12 -39 -13 -24
40 8 29 18 42 42 52 18 8 33 14 35 15 2 0 1 -15 -3 -32z m-299 -125 c-3 -10
-8 -29 -11 -44 -4 -16 -17 -29 -37 -37 -18 -6 -33 -10 -35 -8 -3 2 1 23 7 46
7 26 19 44 33 50 35 14 49 12 43 -7z m-159 -70 c-3 -10 -8 -30 -11 -44 -3 -15
-14 -29 -23 -32 -10 -2 -26 -8 -37 -12 -15 -7 -17 -4 -13 11 3 10 8 32 11 47
4 16 16 32 29 37 35 14 49 12 44 -7z m-162 -90 c-9 -48 -9 -49 -45 -61 -33
-12 -35 -9 -24 46 6 28 32 50 63 51 10 1 12 -8 6 -36z m-2946 -1255 c-2 -48
-15 -70 -48 -84 l-34 -14 7 31 c3 17 6 38 6 45 0 12 44 43 63 44 4 0 7 -10 6
-22z m-149 -70 c0 -44 -12 -66 -41 -79 -16 -6 -32 -10 -34 -7 -3 3 -2 22 3 44
5 26 16 43 32 51 35 18 40 16 40 -9z m-149 -80 c-5 -34 -12 -46 -38 -61 l-33
-19 0 41 c0 36 4 44 33 61 17 11 35 20 38 20 3 0 3 -19 0 -42z m-147 -65 c-7
-43 -19 -58 -51 -68 -19 -5 -23 -3 -23 17 0 41 11 65 33 76 41 20 48 15 41
-25z m-149 -73 c-5 -31 -14 -44 -37 -56 -16 -8 -32 -13 -35 -10 -3 2 -2 23 2
46 6 33 13 43 38 54 18 7 34 12 35 10 2 -1 1 -21 -3 -44z m-145 -34 c0 -46
-14 -75 -41 -87 -16 -6 -32 -10 -34 -7 -2 2 -2 21 2 41 4 27 13 42 32 52 33
18 41 18 41 1z m-154 -111 c-5 -26 -14 -36 -38 -44 -17 -6 -32 -10 -33 -9 -1
2 0 20 3 41 3 30 12 43 36 58 27 17 31 17 34 3 2 -9 1 -31 -2 -49z m-142 -37
c-9 -52 -11 -56 -43 -73 l-31 -16 0 34 c0 36 13 58 45 75 31 17 35 14 29 -20z
m-150 -75 c-6 -39 -35 -73 -60 -73 -27 0 -11 84 20 98 40 20 47 15 40 -25z"/>
</g>
</svg>
