<svg width="30" height="24" viewBox="0 0 30 24" fill="none" xmlns="http://www.w3.org/2000/svg">
    <path
        d="M28.1836 0.203125H1.81641C1.33484 0.203683 0.873151 0.395233 0.53263 0.735755C0.192108 1.07628 0.00055827 1.53796 0 2.01953L0 23.4634C6.2096e-05 23.5722 0.0432948 23.6765 0.120201 23.7534C0.197106 23.8303 0.301395 23.8735 0.410156 23.8736H29.5898C29.6986 23.8735 29.8029 23.8303 29.8798 23.7534C29.9567 23.6765 29.9999 23.5722 30 23.4634V2.01953C29.9994 1.53796 29.8079 1.07628 29.4674 0.735755C29.1269 0.395233 28.6652 0.203683 28.1836 0.203125ZM0.820312 2.01953C0.820623 1.75545 0.925668 1.50227 1.1124 1.31553C1.29914 1.12879 1.55232 1.02375 1.81641 1.02344H28.1836C28.4477 1.02375 28.7009 1.12879 28.8876 1.31553C29.0743 1.50227 29.1794 1.75545 29.1797 2.01953V5.74305H0.820312V2.01953ZM29.1797 23.0533H0.820312V6.56336H29.1797V23.0533Z"
        fill="white" />
    <path
        d="M27.7147 2.07812H9.78809C9.67931 2.07812 9.57498 2.12134 9.49806 2.19826C9.42114 2.27518 9.37793 2.3795 9.37793 2.48828V4.27797C9.37793 4.38675 9.42114 4.49107 9.49806 4.56799C9.57498 4.64491 9.67931 4.68813 9.78809 4.68813H27.7147C27.8235 4.68806 27.9278 4.64483 28.0047 4.56792C28.0816 4.49102 28.1248 4.38673 28.1249 4.27797V2.48828C28.1248 2.37952 28.0816 2.27523 28.0047 2.19833C27.9278 2.12142 27.8235 2.07819 27.7147 2.07812ZM27.3046 3.86781H10.1982V2.89844H27.3046V3.86781Z"
        fill="white" />
    <path
        d="M4.16016 2.07812H2.28516C2.1764 2.07819 2.07211 2.12142 1.9952 2.19833C1.91829 2.27523 1.87506 2.37952 1.875 2.48828V4.27797C1.87506 4.38673 1.91829 4.49102 1.9952 4.56792C2.07211 4.64483 2.1764 4.68806 2.28516 4.68813H4.16016C4.26892 4.68806 4.37321 4.64483 4.45011 4.56792C4.52702 4.49102 4.57025 4.38673 4.57031 4.27797V2.48828C4.57025 2.37952 4.52702 2.27523 4.45011 2.19833C4.37321 2.12142 4.26892 2.07819 4.16016 2.07812ZM3.75 3.86781H2.69531V2.89844H3.75V3.86781Z"
        fill="white" />
    <path
        d="M7.91113 2.07812H6.03613C5.92737 2.07819 5.82308 2.12142 5.74618 2.19833C5.66927 2.27523 5.62604 2.37952 5.62598 2.48828V4.27797C5.62604 4.38673 5.66927 4.49102 5.74618 4.56792C5.82308 4.64483 5.92737 4.68806 6.03613 4.68813H7.91113C8.01991 4.68813 8.12424 4.64491 8.20116 4.56799C8.27808 4.49107 8.32129 4.38675 8.32129 4.27797V2.48828C8.32129 2.3795 8.27808 2.27518 8.20116 2.19826C8.12424 2.12134 8.01991 2.07812 7.91113 2.07812ZM7.50098 3.86781H6.44629V2.89844H7.50098V3.86781Z"
        fill="white" />
    <path
        d="M15.0001 21.1608C16.256 21.1608 17.4837 20.7885 18.528 20.0907C19.5722 19.393 20.3862 18.4013 20.8668 17.241C21.3475 16.0807 21.4732 14.804 21.2283 13.5722C20.9833 12.3404 20.3785 11.2089 19.4905 10.3209C18.6024 9.4328 17.471 8.828 16.2392 8.58297C15.0074 8.33794 13.7307 8.46367 12.5704 8.94428C11.41 9.42488 10.4183 10.2388 9.72056 11.283C9.02281 12.3273 8.65039 13.555 8.65039 14.8109C8.65225 16.4944 9.32182 18.1084 10.5122 19.2988C11.7026 20.4892 13.3166 21.1589 15.0001 21.1608ZM15.0001 9.28149C16.0938 9.28144 17.1629 9.60571 18.0723 10.2133C18.9816 10.8209 19.6904 11.6845 20.109 12.6949C20.5275 13.7053 20.637 14.8172 20.4237 15.8898C20.2103 16.9625 19.6837 17.9478 18.9103 18.7211C18.137 19.4945 17.1517 20.0211 16.079 20.2345C15.0064 20.4478 13.8945 20.3383 12.8841 19.9197C11.8737 19.5012 11.0101 18.7924 10.4025 17.883C9.79493 16.9737 9.47066 15.9045 9.4707 14.8109C9.47238 13.3449 10.0555 11.9395 11.0921 10.9029C12.1287 9.86626 13.5341 9.28316 15.0001 9.28149Z"
        fill="white" />
    <path
        d="M12.1441 17.9755H17.8544C17.9631 17.9755 18.0674 17.9323 18.1443 17.8553C18.2212 17.7784 18.2645 17.6742 18.2645 17.5654V13.5353C18.2645 13.4266 18.2212 13.3223 18.1443 13.2454C18.0674 13.1685 17.9631 13.1252 17.8544 13.1252H17.0809L16.8302 11.9645C16.8104 11.8728 16.7598 11.7906 16.6868 11.7316C16.6138 11.6727 16.5228 11.6406 16.4289 11.6406H13.5695C13.4758 11.6406 13.385 11.6728 13.312 11.7316C13.2391 11.7904 13.1886 11.8725 13.1687 11.9641L12.918 13.1247H12.1445C12.0358 13.1248 11.9315 13.168 11.8546 13.2449C11.7777 13.3218 11.7344 13.4261 11.7344 13.5348V17.5654C11.7344 17.6741 11.7776 17.7783 11.8544 17.8552C11.9312 17.9321 12.0354 17.9754 12.1441 17.9755ZM12.5542 17.1552V15.6679H13.6323V15.7091C13.6323 15.8179 13.6756 15.9222 13.7525 15.9992C13.8294 16.0761 13.9337 16.1193 14.0425 16.1193C14.1513 16.1193 14.2556 16.0761 14.3325 15.9992C14.4094 15.9222 14.4527 15.8179 14.4527 15.7091V15.6679H15.5448V15.7091C15.5448 15.8179 15.5881 15.9222 15.665 15.9992C15.7419 16.0761 15.8462 16.1193 15.955 16.1193C16.0638 16.1193 16.1681 16.0761 16.245 15.9992C16.3219 15.9222 16.3652 15.8179 16.3652 15.7091V15.6679H17.4433V17.1552H12.5542ZM13.9007 12.4609H16.0975L16.2412 13.1247H13.757L13.9007 12.4609ZM16.7484 13.945H17.4442V14.8471H12.5542V13.9455L16.7484 13.945Z"
        fill="white" />
</svg>
    