<svg width="30" height="24" viewBox="0 0 30 24" fill="none" xmlns="http://www.w3.org/2000/svg">
    <path
        d="M29.5898 20.9781H27.041V7.84932C27.0411 7.77865 27.023 7.70914 26.9883 7.64754C26.9537 7.58595 26.9037 7.53435 26.8432 7.49776L15.2123 0.461589C15.1483 0.422832 15.0749 0.402344 15 0.402344C14.9251 0.402344 14.8517 0.422832 14.7877 0.461589L3.1568 7.49846C3.09633 7.53506 3.04634 7.58665 3.01168 7.64825C2.97703 7.70984 2.95887 7.77935 2.95898 7.85003V20.9788H0.410157C0.356255 20.9788 0.302881 20.9894 0.253088 21.01C0.203295 21.0307 0.158059 21.0609 0.119966 21.0991C0.0818737 21.1372 0.0516716 21.1825 0.0310869 21.2323C0.0105022 21.2821 -6.13343e-05 21.3355 2.67882e-07 21.3894V23.2644C2.67882e-07 23.3732 0.043213 23.4775 0.120132 23.5544C0.197051 23.6313 0.301376 23.6746 0.410157 23.6746H29.5898C29.6986 23.6746 29.8029 23.6313 29.8799 23.5544C29.9568 23.4775 30 23.3732 30 23.2644V21.3894C30.0002 21.3354 29.9897 21.282 29.9691 21.2321C29.9486 21.1822 29.9184 21.1368 29.8803 21.0986C29.8422 21.0604 29.7969 21.0301 29.7471 21.0094C29.6972 20.9887 29.6438 20.9781 29.5898 20.9781ZM3.7793 16.8191H11.0156V18.6685H3.7793V16.8191ZM11.8359 12.5141C11.8365 12.0014 12.0404 11.5099 12.4029 11.1474C12.7654 10.785 13.2569 10.5811 13.7695 10.5805H14.5898V14.7674C14.5893 15.879 14.342 16.9766 13.8657 17.981C13.3895 18.9855 12.6962 19.8717 11.8359 20.5757V12.5141ZM26.2207 18.669H18.9844V16.8191H26.2207V18.669ZM18.1641 20.5757C17.3037 19.8717 16.6104 18.9855 16.1342 17.9811C15.658 16.9766 15.4107 15.879 15.4102 14.7674V10.5805H16.2305C16.7431 10.5811 17.2346 10.785 17.5971 11.1474C17.9596 11.5099 18.1635 12.0014 18.1641 12.5141V20.5757ZM12.7402 20.8754C13.7797 19.9138 14.5574 18.7034 15 17.3582C15.4601 18.7507 16.2761 19.9989 17.3672 20.979H12.6328C12.6696 20.9441 12.7031 20.9092 12.7402 20.8754ZM18.9844 19.4893H26.2207V20.9781H18.9844V19.4893ZM15 1.29175L26.2207 8.08065V15.9988H18.9844V12.5141C18.9835 11.784 18.6931 11.084 18.1768 10.5677C17.6605 10.0515 16.9606 9.76105 16.2305 9.76018H13.7695C13.0394 9.76099 12.3394 10.0514 11.8231 10.5677C11.3068 11.084 11.0164 11.784 11.0156 12.5141V15.9988H3.7793V8.08065L15 1.29175ZM3.7793 19.4893H11.0156V20.9781H3.7793V19.4893ZM29.1797 22.8531H0.820313V21.7984H29.1797V22.8531Z"
        fill="white" />
    <path
        d="M7.39707 14.5583C7.78604 14.5583 8.1663 14.443 8.48974 14.227C8.81318 14.0109 9.06529 13.7038 9.21418 13.3444C9.36306 12.9851 9.40204 12.5896 9.32619 12.2081C9.25033 11.8266 9.06304 11.4762 8.78801 11.2011C8.51298 10.926 8.16256 10.7387 7.78106 10.6628C7.39957 10.5869 7.00413 10.6258 6.64476 10.7747C6.28539 10.9235 5.97823 11.1756 5.76212 11.499C5.54601 11.8224 5.43066 12.2027 5.43066 12.5916C5.43122 13.113 5.63857 13.6129 6.00721 13.9816C6.37586 14.3503 6.8757 14.5577 7.39707 14.5583ZM7.39707 11.4453C7.6238 11.4453 7.84546 11.5125 8.034 11.6384C8.22254 11.7643 8.36951 11.9433 8.45631 12.1528C8.54311 12.3623 8.56584 12.5928 8.52163 12.8151C8.47743 13.0375 8.36827 13.2418 8.20796 13.4021C8.04766 13.5625 7.8434 13.6717 7.62103 13.7159C7.39866 13.7602 7.16816 13.7375 6.95868 13.6507C6.7492 13.564 6.57015 13.417 6.44418 13.2285C6.31821 13.04 6.25098 12.8184 6.25098 12.5916C6.25153 12.2878 6.37245 11.9966 6.58726 11.7818C6.80207 11.5669 7.09326 11.4459 7.39707 11.4453Z"
        fill="white" />
    <path
        d="M14.9998 8.47234C15.3888 8.47234 15.7691 8.35699 16.0925 8.14086C16.416 7.92473 16.668 7.61754 16.8169 7.25814C16.9657 6.89874 17.0046 6.50328 16.9286 6.12177C16.8527 5.74026 16.6653 5.38984 16.3902 5.11483C16.1151 4.83982 15.7646 4.65257 15.3831 4.57677C15.0015 4.50096 14.6061 4.54001 14.2468 4.68897C13.8874 4.83792 13.5803 5.0901 13.3643 5.41361C13.1483 5.73711 13.0331 6.11741 13.0332 6.50641C13.0339 7.0277 13.2414 7.52742 13.6101 7.89596C13.9788 8.2645 14.4786 8.47179 14.9998 8.47234ZM14.9998 5.35938C15.2265 5.35938 15.4481 5.42659 15.6366 5.55252C15.8251 5.67845 15.9721 5.85744 16.0588 6.06686C16.1456 6.27628 16.1684 6.50674 16.1242 6.72908C16.08 6.95143 15.9709 7.15569 15.8107 7.31603C15.6504 7.47638 15.4462 7.58561 15.2239 7.62992C15.0016 7.67423 14.7711 7.65163 14.5617 7.56497C14.3522 7.47832 14.1731 7.3315 14.047 7.14308C13.921 6.95466 13.8537 6.7331 13.8535 6.50641C13.8539 6.20243 13.9748 5.911 14.1896 5.69599C14.4045 5.48098 14.6959 5.35993 14.9998 5.35938Z"
        fill="white" />
    <path
        d="M22.6021 14.5583C22.9911 14.5583 23.3714 14.443 23.6948 14.227C24.0183 14.0109 24.2704 13.7038 24.4193 13.3444C24.5681 12.9851 24.6071 12.5896 24.5313 12.2081C24.4554 11.8266 24.2681 11.4762 23.9931 11.2011C23.7181 10.926 23.3676 10.7387 22.9861 10.6628C22.6046 10.5869 22.2092 10.6258 21.8498 10.7747C21.4905 10.9235 21.1833 11.1756 20.9672 11.499C20.7511 11.8224 20.6357 12.2027 20.6357 12.5916C20.6363 13.113 20.8436 13.6129 21.2123 13.9816C21.5809 14.3503 22.0808 14.5577 22.6021 14.5583ZM22.6021 11.4453C22.8289 11.4453 23.0505 11.5125 23.2391 11.6384C23.4276 11.7643 23.5746 11.9433 23.6614 12.1528C23.7482 12.3623 23.7709 12.5928 23.7267 12.8151C23.6825 13.0375 23.5734 13.2418 23.413 13.4021C23.2527 13.5625 23.0485 13.6717 22.8261 13.7159C22.6037 13.7602 22.3732 13.7375 22.1638 13.6507C21.9543 13.564 21.7752 13.417 21.6493 13.2285C21.5233 13.04 21.4561 12.8184 21.4561 12.5916C21.4566 12.2878 21.5775 11.9966 21.7923 11.7818C22.0071 11.5669 22.2983 11.4459 22.6021 11.4453Z"
        fill="white" />
</svg>
    