<svg width="600" height="672" viewBox="0 0 600 672" fill="none" xmlns="http://www.w3.org/2000/svg">
<g clip-path="url(#clip0_7701_47)">
<path d="M598.149 373.399C591.619 428.603 566.417 492.803 516.059 522.353C439.987 566.934 446.351 635.484 297.893 665.289C276.236 669.738 254.16 671.827 232.052 671.518C221.234 671.324 210.439 670.44 199.734 668.87C105.366 655.088 41.8422 589.488 18.5512 510.302C-12.1123 406.154 49.1094 337.981 89.6882 296.891C130.267 255.801 159.968 127.745 305.717 97.277C327.963 92.5372 350.683 90.3814 373.424 90.8524C425.272 92.1313 481.829 109.148 520.979 144.702C523.908 147.37 526.766 150.133 529.555 152.992C583.931 208.842 607.041 298.125 598.149 373.399Z" fill="#83CD20"/>
<path d="M598.149 373.399C591.619 428.603 566.417 492.803 516.059 522.353C439.987 566.934 446.351 635.484 297.893 665.289C276.236 669.738 254.16 671.827 232.052 671.518C221.234 671.324 210.439 670.44 199.734 668.87C105.366 655.088 41.8422 589.488 18.5512 510.302C-12.1123 406.154 49.1094 337.981 89.6882 296.891C130.267 255.801 159.968 127.745 305.717 97.277C327.963 92.5372 350.683 90.3814 373.424 90.8524C425.272 92.1313 481.829 109.148 520.979 144.702C523.908 147.37 526.766 150.133 529.555 152.992C583.931 208.842 607.041 298.125 598.149 373.399Z" fill="white"/>
<g opacity="0.15">
<path d="M403.154 104.797C396.022 109.747 376.854 113.072 376.839 113.072C376.824 113.072 378.479 99.7717 378.69 98.9441C381.157 89.3599 391.539 72.2828 402.613 71.6058C410.572 71.1243 416.425 78.0454 416.154 85.7037C415.883 93.3621 409.233 100.539 403.154 104.797Z" fill="#D9D9D9"/>
<path d="M350.358 345.996C350.358 346.448 350.358 346.869 350.358 347.32L343.738 351.548C343.738 349.743 343.738 347.922 343.738 346.026C343.738 340.7 343.843 334.998 343.994 329.145C338.502 328.119 333.076 326.767 327.744 325.098C323.366 332.214 310.502 342.084 308.831 343.348C311.705 347.742 314.564 351.97 317.302 355.942C319.198 358.665 321.034 361.268 322.809 363.781L315.602 365.195C314.368 363.389 313.135 361.539 311.871 359.613C308.862 355.174 305.852 350.36 302.768 345.395C300.812 346.222 284.713 352.917 276.588 352.692C269.201 352.496 259.842 350.179 255.298 343.815C250.754 337.45 251.958 328.588 258.894 324.631C268.524 319.124 286.564 327.731 293.861 334.411C294.297 334.802 298.495 339.602 301.098 342.671C299.849 340.64 298.6 338.669 297.336 336.563C294.809 332.395 292.416 328.167 289.813 323.638L286.233 316.867C284.999 314.626 283.976 312.113 282.817 309.706C280.244 304.094 277.927 298.286 275.715 292.388C272.074 294.6 258.999 302.243 251.642 303.161C244.285 304.078 234.715 303.161 229.254 297.609C223.792 292.057 223.642 283.059 229.901 278.049C238.582 271.158 257.721 276.936 266.011 282.427C266.537 282.758 272.029 287.378 274.948 289.95C273.639 286.385 272.33 282.834 271.126 279.193C267.666 268.66 264.491 257.918 261.271 247.205C260.268 243.925 259.265 240.655 258.262 237.395C256.983 238.193 241.712 247.626 233.391 248.649C226.049 249.582 216.45 248.649 211.003 243.098C205.556 237.546 205.391 228.548 211.65 223.538C220.332 216.647 239.47 222.424 247.76 227.916C248.377 228.337 256.231 234.973 258.142 236.763C255.915 229.556 253.628 222.409 251.1 215.458C247.67 206.093 243.635 196.961 239.019 188.12C238.417 188.481 222.468 198.396 214.012 199.449C206.67 200.367 197.071 199.449 191.609 193.897C186.147 188.346 185.997 179.348 192.256 174.338C200.937 167.447 220.076 173.224 228.366 178.716C228.998 179.152 237.394 186.239 238.898 187.744C238.642 187.232 238.417 186.675 238.146 186.239C233.311 177.451 227.707 169.108 221.4 161.308C217.984 156.945 214.464 152.988 210.868 149.271C208.084 151.423 195.265 161.112 187.757 162.903C180.565 164.618 170.921 164.814 164.887 159.894C158.854 154.974 157.711 146.052 163.383 140.439C171.267 132.631 190.917 136.272 199.704 140.831C200.185 141.071 204.759 144.126 208.069 146.398C206.459 144.712 204.819 142.952 203.254 141.372C197.341 135.354 191.579 130.329 186.433 125.86C183.424 123.347 180.776 121.136 178.203 119.089C174.381 119.766 158.899 122.339 151.542 120.504C144.184 118.668 135.728 114.485 132.659 107.248C129.59 100.011 132.659 91.6606 140.302 89.2834C150.835 85.9883 166.648 98.3109 172.35 106.36C172.847 107.068 179.286 118.879 179.091 118.924H178.865C181.363 120.835 184.026 122.926 186.9 125.273C192.151 129.636 198.049 134.602 204.097 140.454C210.69 146.682 216.91 153.294 222.724 160.255C229.29 168.004 235.146 176.328 240.222 185.126L240.388 185.457C239.696 182.282 238.086 173.345 238.041 172.638C237.394 162.768 241.937 143.298 252.244 139.206C259.661 136.196 267.38 141.011 269.471 148.384C271.563 155.756 267.606 164.498 263.092 170.396C258.067 177.061 242.178 185.667 240.914 186.359C245.859 195.434 250.192 204.828 253.884 214.48C256.066 220.092 258.097 225.825 260.053 231.587C259.556 228.819 259.12 226.336 259.105 225.99C258.458 216.12 263.002 196.651 273.308 192.558C280.726 189.549 288.444 194.364 290.536 201.736C292.627 209.109 288.67 218.016 284.156 223.914C279.642 229.812 266.237 237.455 262.656 239.486C263.393 241.713 264.16 243.91 264.867 246.137C268.313 256.789 271.713 267.442 275.399 277.733C276.678 281.374 278.078 284.91 279.477 288.461C279.026 286.008 278.68 283.947 278.649 283.616C278.002 273.746 282.546 254.277 292.853 250.184C300.27 247.25 307.989 251.99 310.08 259.362C312.172 266.735 308.23 275.702 303.716 281.6C299.202 287.498 287.165 294.464 282.862 296.811C284.367 300.407 285.871 304.003 287.572 307.343C288.745 309.645 289.723 311.947 291.032 314.204C292.341 316.461 293.53 318.718 294.749 320.9C297.276 325.068 299.849 329.386 302.407 333.388C304.167 336.186 305.898 338.819 307.628 341.483C306.304 337.857 303.851 330.74 303.716 330.108C302.166 321.558 302.824 312.754 305.627 304.53C305.411 303.581 305.285 302.614 305.251 301.641C304.98 293.998 310.863 287.107 318.792 287.633C329.851 288.356 340.142 305.493 342.549 315.092C342.7 315.649 343.557 321.968 344.054 325.955C344.144 323.578 344.189 321.246 344.295 318.793C344.49 313.934 344.806 309.074 345.137 303.853C345.393 301.34 345.649 298.797 345.905 296.24C346.16 293.682 346.642 291.019 346.988 288.386C347.951 282.367 349.215 276.168 350.629 270.015C346.371 269.849 331.25 269.022 324.6 265.727C317.949 262.431 310.441 256.413 308.982 248.74C307.522 241.066 312.337 233.498 320.281 232.821C331.325 231.858 344.114 247.235 347.951 256.353C348.191 256.925 350.208 263.786 351.246 267.562C352.118 263.876 352.976 260.19 353.984 256.503C356.903 245.806 360.183 235.093 363.403 224.38C364.396 221.1 365.344 217.82 366.307 214.525C364.802 214.525 346.747 213.893 339.345 210.192C332.724 206.912 325.186 200.894 323.727 193.205C322.267 185.517 327.082 177.979 335.041 177.287C346.07 176.339 358.859 191.701 362.696 200.834C362.982 201.511 365.87 211.366 366.487 213.939C368.594 206.702 370.64 199.479 372.355 192.288C374.732 182.577 376.471 172.721 377.561 162.783C376.854 162.783 358.001 162.226 350.478 158.434C343.843 155.154 336.32 149.136 334.861 141.447C333.401 133.759 338.201 126.221 346.16 125.529C357.204 124.581 369.978 139.943 373.815 149.076C374.131 149.783 377.23 160.405 377.651 162.376C377.651 161.805 377.832 161.203 377.892 160.631C378.717 150.614 378.646 140.544 377.681 130.539C377.23 125.017 376.478 119.766 375.635 114.681C372.13 114.937 356.076 115.945 348.838 113.297C341.887 110.769 333.793 105.608 331.46 98.1304C329.128 90.6526 333.116 82.6181 340.939 81.0683C351.818 78.9017 366.201 92.774 371.031 101.425C371.287 101.892 373.423 106.962 374.928 110.694C374.507 108.392 374.131 106.014 373.694 103.833C372.054 95.6177 370.053 88.185 368.218 81.625C367.149 77.8937 366.111 74.5535 365.103 71.4239C361.522 69.9193 347.198 63.4947 342.083 57.8826C336.967 52.2705 332.228 44.1006 333.642 36.3971C335.056 28.6936 342.233 23.5479 349.907 25.7446C360.559 28.8441 366.924 47.7868 367.225 57.687C367.225 58.5296 366.096 71.9505 365.916 71.8753L365.69 71.785C366.728 74.7942 367.796 77.9689 368.895 81.5047C370.866 88.0346 373.032 95.4372 374.913 103.667C376.978 112.497 378.525 121.439 379.547 130.449C380.733 140.539 381.02 150.715 380.405 160.857V161.218C381.593 158.209 385.174 149.843 385.52 149.181C390.425 140.59 404.96 126.868 415.808 129.14C423.617 130.78 427.438 138.995 425.121 146.307C422.804 153.62 414.589 158.825 407.578 161.353C399.709 164.122 381.699 162.542 380.269 162.406C379.389 172.711 377.821 182.945 375.575 193.04C374.296 198.923 372.837 204.821 371.287 210.704C372.4 208.116 373.408 205.814 373.574 205.513C378.479 196.922 393.013 183.185 403.861 185.472C411.685 187.112 415.492 195.327 413.175 202.624C410.858 209.921 402.643 215.157 395.631 217.67C388.62 220.183 373.183 219.175 369.105 218.798C368.503 221.055 367.902 223.312 367.285 225.554C364.276 236.357 361.266 247.115 358.588 257.767C357.655 261.514 356.873 265.29 356.076 268.961C357.054 266.674 357.896 264.749 358.062 264.448C362.967 255.856 377.501 242.135 388.349 244.406C396.158 246.046 399.979 254.262 397.662 261.574C395.345 268.886 387.13 274.092 380.119 276.62C373.107 279.147 359.16 278.124 354.33 277.793C353.623 281.645 352.916 285.497 352.404 289.243C352.118 291.816 351.652 294.269 351.517 296.872C351.381 299.474 351.11 301.987 350.915 304.5C350.719 309.375 350.478 314.385 350.403 319.139C350.403 322.45 350.313 325.594 350.298 328.769C351.186 325.022 353.081 317.725 353.307 317.138C356.858 307.9 369.15 292.132 380.209 292.734C388.183 293.17 393.194 300.723 392.005 308.291C390.816 315.859 383.459 322.269 376.959 325.76C369.782 329.596 352.45 330.8 350.283 330.935C350.147 336.066 350.178 341.182 350.358 345.996Z" fill="#D9D9D9"/>
<path d="M210.912 147.016C210.762 147.151 204.894 134.979 204.653 134.197C201.419 124.853 200.666 104.872 209.528 98.2071C215.908 93.4074 224.574 95.9502 228.576 102.51C232.579 109.07 231.029 118.715 228.29 125.591C225.071 133.64 210.928 147.001 210.912 147.016Z" fill="#D9D9D9"/>
</g>
<g opacity="0.15">
<path d="M111.024 383.554C109.79 387.857 103.23 395.455 103.23 395.47C103.23 395.485 99.5437 389.617 99.3481 389.226C97.1965 384.592 95.7672 374.391 99.9499 370.494C100.667 369.87 101.507 369.404 102.415 369.126C103.324 368.848 104.281 368.763 105.224 368.878C106.167 368.993 107.076 369.305 107.891 369.793C108.706 370.281 109.409 370.935 109.955 371.713C112.378 374.932 112.062 379.883 111.024 383.554Z" fill="#D9D9D9"/>
<path d="M168.799 497.057L169.236 497.569L168.002 501.42L166.196 499.224C164.451 497.102 162.631 494.8 160.78 492.408C158.251 493.792 155.644 495.028 152.971 496.109C153.558 500.382 151.647 508.522 151.391 509.56C153.979 510.373 156.492 511.14 158.914 511.817C160.569 512.299 162.149 512.735 163.684 513.141L161.261 516.15L157.951 515.142C155.318 514.33 152.535 513.412 149.676 512.434C149.165 513.412 144.937 521.341 141.627 523.914C138.617 526.246 134.104 528.428 130.222 527.329C129.298 527.111 128.431 526.701 127.676 526.125C126.921 525.55 126.295 524.822 125.84 523.989C125.384 523.156 125.109 522.237 125.032 521.291C124.955 520.345 125.078 519.393 125.392 518.497C127.423 513.156 137.429 510.689 142.529 510.975C142.83 510.975 146.08 511.531 148.111 511.907C146.953 511.501 145.809 511.125 144.621 510.689C142.258 509.861 139.911 508.958 137.399 507.995L133.758 506.491C132.524 506.009 131.29 505.347 130.056 504.761C127.198 503.361 124.369 501.751 121.555 500.172C120.818 502.248 118.11 509.56 115.537 512.344C112.964 515.127 108.796 517.896 104.794 517.444C103.848 517.37 102.928 517.097 102.094 516.644C101.26 516.19 100.53 515.567 99.953 514.813C99.3755 514.06 98.9629 513.194 98.742 512.271C98.5211 511.347 98.4967 510.388 98.6705 509.455C99.8742 503.873 109.398 499.916 114.484 499.419C114.8 499.419 118.486 499.419 120.502 499.494C118.817 498.501 117.132 497.523 115.462 496.485C110.647 493.476 105.862 490.181 101.078 486.961C99.5732 485.968 98.0687 485.005 96.6694 483.952C96.4136 484.689 93.3744 493.461 90.4254 496.576C87.8074 499.344 83.6848 502.128 79.6826 501.676C78.7363 501.602 77.8163 501.329 76.9823 500.875C76.1482 500.422 75.4188 499.799 74.8414 499.045C74.2639 498.292 73.8514 497.426 73.6304 496.502C73.4095 495.579 73.3851 494.62 73.5589 493.687C74.7626 488.105 84.2866 484.148 89.3721 483.651C89.7483 483.651 95.0595 483.651 96.3986 483.772C93.1637 481.635 89.9138 479.529 86.6338 477.588C82.2096 474.932 77.6157 472.57 72.8819 470.516C72.7765 470.862 69.647 480.04 66.6228 483.215C63.9897 485.983 59.8822 488.782 55.8649 488.33C54.9184 488.254 53.9986 487.979 53.1651 487.524C52.3317 487.069 51.6032 486.444 51.0272 485.689C50.4511 484.934 50.0402 484.067 49.8213 483.143C49.6023 482.219 49.5802 481.259 49.7563 480.326C50.96 474.744 60.484 470.787 65.5545 470.29C65.9607 470.29 71.6631 470.29 72.7013 470.426C72.4305 470.321 72.1446 470.17 71.8738 470.05C67.0806 468.1 62.1201 466.589 57.0536 465.536C54.255 464.919 51.5618 464.483 48.9288 464.122C48.5226 465.882 46.5666 473.947 44.1592 477.106C41.7519 480.266 38.0657 483.38 34.0334 483.365C33.0852 483.396 32.1412 483.226 31.263 482.867C30.3848 482.508 29.592 481.968 28.9362 481.283C28.2805 480.597 27.7765 479.781 27.457 478.888C27.1376 477.995 27.0098 477.044 27.0822 476.098C27.6689 470.411 36.6965 465.431 41.6917 464.377C41.9625 464.377 44.7912 464.046 46.8525 463.866C45.6488 463.73 44.4301 463.55 43.2866 463.429C38.9835 462.993 35.0113 462.843 31.5057 462.752C29.5045 462.752 27.699 462.752 26.0139 462.752C24.7049 464.257 19.3636 470.351 15.8429 472.021C12.3221 473.691 7.55259 474.774 3.97167 472.908C3.11457 472.499 2.3534 471.914 1.73784 471.19C1.12227 470.467 0.666142 469.622 0.399219 468.711C0.132296 467.799 0.0605766 466.842 0.188744 465.9C0.316911 464.959 0.642087 464.056 1.14304 463.249C4.28763 458.479 14.5941 458.224 19.5141 459.593C19.9354 459.698 26.375 462.316 26.3148 462.391L26.2245 462.482C27.8495 462.482 29.5948 462.391 31.5057 462.391C35.0264 462.391 39.0286 462.467 43.3317 462.828C47.9967 463.162 52.6385 463.765 57.2341 464.633C62.3629 465.588 67.3976 466.993 72.28 468.831L72.4606 468.906C71.1516 467.868 67.5857 464.829 67.3299 464.573C63.8393 460.842 59.2954 451.588 62.0639 446.518C62.5498 445.701 63.2019 444.996 63.9778 444.448C64.7537 443.899 65.6362 443.52 66.568 443.334C67.4999 443.148 68.4604 443.16 69.3873 443.369C70.3143 443.578 71.187 443.979 71.949 444.547C75.2591 446.849 76.4628 451.664 76.6584 455.47C76.8239 459.773 73.3031 468.395 73.0173 469.012C77.9606 471.008 82.7615 473.34 87.3861 475.993C90.0944 477.497 92.7725 479.137 95.4356 480.792C94.3373 479.86 93.3593 479.002 93.2389 478.867C89.7483 475.15 85.1894 465.897 87.9729 460.902C88.4557 460.084 89.1055 459.377 89.88 458.827C90.6545 458.277 91.5362 457.897 92.4676 457.711C93.3989 457.525 94.3591 457.538 95.2853 457.748C96.2116 457.958 97.0831 458.361 97.843 458.931C101.153 461.233 102.357 466.048 102.552 469.854C102.748 473.661 99.8591 481.139 99.0767 483.094L102.086 485.02C106.946 488.135 111.791 491.279 116.635 494.213C118.335 495.237 120.051 496.199 121.766 497.223C120.788 496.38 119.975 495.718 119.855 495.552C116.364 491.821 111.821 482.568 114.589 477.573C115.074 476.757 115.724 476.051 116.499 475.503C117.273 474.955 118.155 474.575 119.085 474.389C120.016 474.203 120.975 474.215 121.901 474.424C122.827 474.633 123.698 475.034 124.459 475.602C127.769 477.904 128.973 482.718 129.184 486.525C129.394 490.332 126.746 497.057 125.828 499.419C127.619 500.352 129.409 501.285 131.17 502.113C132.403 502.639 133.532 503.241 134.796 503.707L138.467 505.212C140.829 506.055 143.267 506.927 145.599 507.695C147.224 508.236 148.773 508.718 150.323 509.199C148.623 508.191 145.313 506.19 145.057 505.934C141.631 503.031 139.009 499.295 137.444 495.086C137.042 494.785 136.674 494.442 136.345 494.063C135.693 493.374 135.193 492.554 134.879 491.658C134.565 490.762 134.444 489.81 134.523 488.864C134.603 487.918 134.881 487 135.341 486.169C135.8 485.338 136.429 484.613 137.188 484.042C141.822 480.717 151.542 484.178 155.634 487.217C155.875 487.398 158.282 489.639 159.787 491.069C159.035 490.091 158.282 489.158 157.53 488.135C156.025 486.134 154.521 484.088 153.016 481.906L150.835 478.611C150.082 477.543 149.42 476.294 148.698 475.135C147.088 472.382 145.584 469.523 144.184 466.619C142.439 467.943 136.135 472.547 132.403 473.405C128.672 474.263 123.722 474.323 120.622 471.735C119.874 471.151 119.257 470.417 118.811 469.579C118.365 468.741 118.101 467.818 118.036 466.872C117.971 465.925 118.106 464.975 118.432 464.084C118.758 463.192 119.269 462.38 119.93 461.699C124.023 457.697 134.134 459.653 138.647 462.045C138.933 462.196 141.988 464.272 143.628 465.431C142.785 463.685 141.912 461.925 141.115 460.119C138.783 454.914 136.601 449.587 134.359 444.231C133.682 442.606 132.99 440.981 132.298 439.356C131.681 439.838 124.309 445.48 120.141 446.443C116.425 447.3 111.444 447.36 108.36 444.773C107.612 444.187 106.995 443.452 106.55 442.613C106.104 441.775 105.839 440.852 105.772 439.905C105.706 438.957 105.839 438.006 106.163 437.114C106.487 436.221 106.994 435.406 107.653 434.722C111.745 430.735 121.871 432.691 126.385 435.068C126.731 435.249 131.109 438.243 132.178 439.055C130.673 435.489 129.169 431.938 127.438 428.523C125.226 423.876 122.713 419.377 119.915 415.057C119.614 415.283 111.956 421.196 107.668 422.189C103.952 423.046 98.9865 423.107 95.887 420.519C95.1381 419.934 94.5207 419.198 94.0749 418.359C93.6292 417.519 93.3651 416.596 93.2998 415.648C93.2345 414.7 93.3695 413.749 93.696 412.856C94.0225 411.964 94.5332 411.15 95.1949 410.468C99.2874 406.481 109.413 408.437 113.927 410.814C114.273 411.01 118.982 414.229 119.795 414.876C119.629 414.621 119.494 414.35 119.329 414.094C116.385 409.843 113.072 405.861 109.428 402.193C107.442 400.131 105.426 398.281 103.41 396.535C102.101 397.784 96.0224 403.427 92.276 404.736C88.5296 406.045 83.745 406.601 80.3747 404.374C79.5678 403.874 78.875 403.209 78.3411 402.424C77.8073 401.638 77.4442 400.749 77.2754 399.815C77.1067 398.88 77.136 397.921 77.3614 396.998C77.5869 396.076 78.0035 395.211 78.5842 394.459C82.2103 390.051 92.4866 390.878 97.2411 392.759C97.4969 392.849 100.01 394.264 101.755 395.181C100.837 394.399 99.9193 393.571 99.0165 392.849C95.6764 390.111 92.4566 387.794 89.5828 385.778C87.9428 384.634 86.4231 383.641 85.069 382.769C83.1281 383.31 75.3343 385.447 71.5277 384.89C67.7211 384.333 63.087 382.618 61.1461 379.082C60.6562 378.266 60.3448 377.356 60.2321 376.411C60.1195 375.466 60.2082 374.508 60.4924 373.6C60.7767 372.691 61.2501 371.854 61.8814 371.142C62.5127 370.429 63.2876 369.859 64.1552 369.468C69.4062 367.226 78.1479 372.688 81.5031 376.539C81.789 376.87 85.716 382.558 85.6107 382.558H85.5054C86.8896 383.415 88.3641 384.348 90.0191 385.402C92.938 387.358 96.218 389.599 99.6334 392.278C103.317 395.133 106.833 398.198 110.166 401.456C113.934 405.091 117.373 409.054 120.442 413.297L120.547 413.462C120.021 411.867 118.727 407.444 118.666 407.007C117.809 401.967 119.118 391.751 124.188 389.118C125.042 388.7 125.974 388.468 126.924 388.435C127.874 388.402 128.82 388.57 129.7 388.928C130.581 389.286 131.376 389.826 132.033 390.512C132.691 391.198 133.196 392.015 133.517 392.909C135.021 396.656 133.396 401.365 131.425 404.63C129.184 408.301 121.495 413.552 120.893 413.974C123.907 418.373 126.626 422.967 129.033 427.726C130.447 430.494 131.787 433.323 133.096 436.166C132.689 434.782 132.343 433.533 132.313 433.353C131.456 428.312 132.764 418.096 137.835 415.463C138.689 415.046 139.621 414.813 140.571 414.78C141.52 414.748 142.466 414.916 143.347 415.273C144.227 415.631 145.022 416.171 145.68 416.857C146.338 417.543 146.843 418.36 147.163 419.255C148.668 423.001 147.043 427.711 145.057 430.976C143.071 434.241 136.586 438.89 134.856 440.093C135.337 441.192 135.849 442.275 136.36 443.388C138.693 448.67 140.995 453.921 143.417 459.066C144.275 460.872 145.177 462.617 146.08 464.362C145.719 463.129 145.433 462.075 145.403 461.91C144.545 456.885 145.854 446.653 150.925 444.02C151.78 443.606 152.713 443.375 153.663 443.345C154.612 443.314 155.558 443.484 156.438 443.843C157.318 444.202 158.112 444.743 158.77 445.429C159.427 446.115 159.933 446.932 160.253 447.827C161.758 451.573 160.133 456.268 158.147 459.533C156.161 462.798 150.308 467.056 148.262 468.44C149.225 470.2 150.203 471.961 151.271 473.631C151.993 474.744 152.625 475.872 153.407 476.956C154.19 478.039 154.912 479.122 155.664 480.206C157.169 482.207 158.674 484.283 160.253 486.224C161.307 487.563 162.33 488.827 163.353 490.091C162.48 488.315 160.855 484.78 160.75 484.464C159.155 479.634 158.899 469.328 163.503 465.942C164.286 465.405 165.173 465.039 166.106 464.866C167.04 464.693 167.999 464.718 168.922 464.94C169.845 465.161 170.712 465.573 171.466 466.15C172.219 466.727 172.844 467.456 173.298 468.289C175.344 471.765 174.457 476.67 172.997 480.191C171.387 484.057 164.872 490.211 164.06 490.964C165.489 493.145 167.174 495.176 168.799 497.057Z" fill="#D9D9D9"/>
<path d="M48.1614 463.25C48.1614 463.355 41.8572 460.422 41.481 460.241C37.1328 457.578 30.3019 449.844 31.6561 444.292C31.9044 443.372 32.3448 442.515 32.9482 441.776C33.5517 441.038 34.3044 440.436 35.1571 440.01C36.0098 439.584 36.9431 439.343 37.8956 439.303C38.8481 439.263 39.7982 439.425 40.6836 439.779C44.4902 441.118 46.9728 445.436 48.1163 449.062C49.4403 453.29 48.1614 463.25 48.1614 463.25Z" fill="#D9D9D9"/>
</g>
<g opacity="0.15">
<path d="M478.113 383.553C479.331 387.856 485.891 395.454 485.906 395.469C485.921 395.484 489.593 389.616 489.788 389.225C491.94 384.591 493.369 374.39 489.171 370.493C488.456 369.87 487.617 369.404 486.71 369.126C485.802 368.847 484.847 368.763 483.905 368.878C482.963 368.993 482.055 369.305 481.242 369.793C480.428 370.281 479.726 370.935 479.181 371.712C476.743 374.932 477.059 379.882 478.113 383.553Z" fill="#D9D9D9"/>
<path d="M420.337 497.057L419.9 497.569L421.134 501.42L422.94 499.224C424.685 497.102 426.505 494.8 428.356 492.408C430.883 493.796 433.491 495.032 436.165 496.109C435.578 500.382 437.489 508.522 437.745 509.56C435.157 510.373 432.629 511.14 430.222 511.817C428.582 512.299 427.002 512.735 425.467 513.141L427.89 516.15L431.2 515.142C433.818 514.33 436.616 513.412 439.475 512.434C439.987 513.412 444.199 521.341 447.525 523.914C450.534 526.246 455.048 528.428 458.929 527.329C459.853 527.111 460.721 526.701 461.475 526.125C462.23 525.55 462.856 524.822 463.311 523.989C463.767 523.156 464.042 522.237 464.119 521.291C464.196 520.345 464.074 519.393 463.759 518.497C461.713 513.156 451.722 510.689 446.607 510.975C446.306 510.975 443.071 511.531 441.025 511.907C442.198 511.501 443.327 511.125 444.53 510.689C446.893 509.861 449.24 508.958 451.752 507.995L455.394 506.491C456.612 506.009 457.846 505.347 459.095 504.761C461.954 503.361 464.782 501.751 467.581 500.172C468.318 502.248 471.041 509.56 473.674 512.344C476.307 515.127 480.415 517.896 484.417 517.444C485.363 517.37 486.283 517.097 487.117 516.644C487.951 516.19 488.681 515.567 489.258 514.813C489.836 514.06 490.248 513.194 490.469 512.271C490.69 511.347 490.715 510.388 490.541 509.455C489.322 503.873 479.813 499.916 474.728 499.419C474.412 499.419 470.725 499.419 468.709 499.494C470.379 498.501 472.064 497.523 473.734 496.485C478.564 493.476 483.349 490.181 488.133 486.961C489.638 485.968 491.067 485.005 492.542 483.952C492.798 484.689 495.822 493.461 498.786 496.576C501.404 499.344 505.526 502.128 509.529 501.676C510.475 501.602 511.395 501.329 512.229 500.875C513.063 500.422 513.792 499.799 514.37 499.045C514.947 498.292 515.36 497.426 515.581 496.502C515.802 495.579 515.826 494.62 515.652 493.687C514.434 488.105 504.925 484.148 499.839 483.651C499.463 483.651 494.152 483.651 492.813 483.772C496.048 481.635 499.297 479.529 502.577 477.588C506.998 474.935 511.587 472.573 516.314 470.516C516.435 470.862 519.564 480.04 522.588 483.215C525.222 485.983 529.329 488.782 533.331 488.33C534.279 488.256 535.201 487.983 536.036 487.529C536.871 487.075 537.601 486.45 538.179 485.695C538.757 484.939 539.169 484.071 539.389 483.146C539.609 482.221 539.631 481.26 539.455 480.326C538.251 474.744 528.727 470.787 523.642 470.29C523.251 470.29 517.548 470.29 516.51 470.426C516.781 470.321 517.052 470.17 517.337 470.05C522.131 468.1 527.091 466.589 532.158 465.536C534.941 464.919 537.649 464.483 540.282 464.122C540.689 465.882 542.645 473.947 545.052 477.106C547.459 480.266 551.07 483.38 555.178 483.365C556.125 483.393 557.068 483.222 557.945 482.862C558.823 482.502 559.614 481.963 560.27 481.278C560.925 480.593 561.429 479.778 561.749 478.885C562.07 477.993 562.199 477.044 562.129 476.098C561.542 470.411 552.515 465.431 547.52 464.377C547.249 464.377 544.42 464.046 542.359 463.866C543.562 463.73 544.781 463.55 545.925 463.429C550.228 462.993 554.185 462.843 557.706 462.752C559.707 462.752 561.512 462.752 563.197 462.752C564.506 464.257 569.833 470.351 573.368 472.021C576.904 473.691 581.659 474.774 585.24 472.908C586.095 472.498 586.855 471.911 587.469 471.187C588.083 470.464 588.538 469.618 588.803 468.707C589.069 467.796 589.139 466.838 589.01 465.898C588.881 464.958 588.555 464.055 588.053 463.249C584.924 458.479 574.617 458.224 569.697 459.593C569.261 459.698 562.836 462.316 562.896 462.391L562.972 462.482C561.347 462.482 559.601 462.391 557.706 462.391C554.185 462.391 550.183 462.467 545.88 462.828C541.214 463.161 536.573 463.764 531.977 464.633C526.823 465.587 521.764 466.991 516.856 468.831L516.69 468.906C517.999 467.868 521.565 464.829 521.821 464.573C525.297 460.842 529.856 451.588 527.072 446.518C526.589 445.7 525.94 444.993 525.165 444.443C524.391 443.894 523.509 443.513 522.577 443.327C521.646 443.141 520.686 443.154 519.76 443.364C518.833 443.574 517.962 443.977 517.202 444.547C513.892 446.849 512.688 451.664 512.493 455.47C512.327 459.773 515.848 468.395 516.134 469.012C511.187 471.011 506.381 473.343 501.75 475.993C499.057 477.497 496.379 479.137 493.7 480.792C494.814 479.86 495.792 479.002 495.912 478.867C499.403 475.15 503.947 465.897 501.178 460.902C500.695 460.084 500.046 459.377 499.271 458.827C498.497 458.277 497.615 457.897 496.684 457.711C495.752 457.525 494.792 457.538 493.866 457.748C492.94 457.958 492.068 458.361 491.308 458.931C487.998 461.233 486.794 466.048 486.599 469.854C486.403 473.661 489.292 481.139 490.074 483.094L487.065 485.02C482.205 488.135 477.376 491.279 472.531 494.213C470.831 495.237 469.115 496.199 467.4 497.223C468.378 496.38 469.191 495.718 469.311 495.552C472.802 491.821 477.346 482.568 474.577 477.573C474.091 476.756 473.439 476.051 472.663 475.502C471.887 474.954 471.005 474.574 470.073 474.388C469.141 474.203 468.181 474.215 467.254 474.424C466.327 474.633 465.454 475.034 464.692 475.602C461.382 477.904 460.178 482.718 459.983 486.525C459.787 490.332 462.42 497.057 463.338 499.419C461.547 500.352 459.757 501.285 457.981 502.113C456.763 502.639 455.619 503.241 454.37 503.707L450.699 505.212C448.322 506.055 445.9 506.927 443.567 507.695C441.943 508.236 440.393 508.718 438.843 509.199C440.543 508.191 443.853 506.19 444.109 505.934C447.535 503.031 450.157 499.295 451.722 495.086C452.12 494.781 452.488 494.438 452.821 494.063C453.471 493.372 453.969 492.553 454.282 491.657C454.594 490.761 454.715 489.81 454.635 488.865C454.556 487.919 454.278 487.001 453.82 486.171C453.362 485.34 452.735 484.615 451.978 484.042C447.329 480.717 437.624 484.178 433.532 487.217C433.276 487.398 430.884 489.639 429.379 491.069C430.131 490.091 430.884 489.158 431.636 488.135C433.141 486.134 434.645 484.088 436.15 481.906L438.332 478.611C439.084 477.543 439.746 476.294 440.468 475.135C442.078 472.382 443.568 469.523 444.982 466.619C446.742 467.943 453.046 472.547 456.778 473.405C460.509 474.263 465.459 474.323 468.559 471.735C469.307 471.151 469.924 470.417 470.37 469.579C470.816 468.741 471.08 467.818 471.145 466.872C471.21 465.925 471.075 464.975 470.749 464.084C470.423 463.192 469.912 462.38 469.251 461.699C465.158 457.697 455.032 459.653 450.519 462.045C450.248 462.196 447.194 464.272 445.539 465.431C446.396 463.685 447.269 461.925 448.066 460.119C450.398 454.914 452.58 449.587 454.807 444.231C455.484 442.606 456.176 440.981 456.868 439.356C457.5 439.838 464.857 445.48 469.04 446.443C472.757 447.3 477.722 447.36 480.821 444.773C481.57 444.188 482.187 443.452 482.633 442.613C483.079 441.773 483.343 440.85 483.408 439.902C483.474 438.954 483.339 438.002 483.012 437.11C482.686 436.218 482.175 435.404 481.513 434.722C477.421 430.735 467.31 432.691 462.796 435.068C462.45 435.249 458.072 438.243 457.003 439.055C458.508 435.489 460.013 431.938 461.728 428.523C463.946 423.879 466.459 419.381 469.251 415.057C469.537 415.283 477.21 421.196 481.483 422.189C485.199 423.046 490.18 423.107 493.264 420.519C494.013 419.934 494.63 419.198 495.076 418.359C495.522 417.519 495.786 416.596 495.851 415.648C495.917 414.7 495.782 413.749 495.455 412.856C495.129 411.964 494.618 411.15 493.956 410.468C489.879 406.481 479.753 408.437 475.239 410.814C474.878 411.01 470.169 414.229 469.371 414.876C469.522 414.621 469.672 414.35 469.838 414.094C472.781 409.843 476.094 405.861 479.738 402.193C481.724 400.131 483.74 398.281 485.756 396.535C487.065 397.784 493.144 403.427 496.89 404.736C500.637 406.045 505.421 406.601 508.791 404.374C509.598 403.874 510.291 403.209 510.825 402.424C511.359 401.638 511.722 400.749 511.891 399.815C512.059 398.88 512.03 397.921 511.805 396.998C511.579 396.076 511.163 395.211 510.582 394.459C506.956 390.051 496.679 390.878 491.925 392.759C491.669 392.849 489.157 394.264 487.411 395.181C488.314 394.399 489.247 393.571 490.134 392.849C493.475 390.111 496.71 387.794 499.583 385.778C501.223 384.634 502.743 383.641 504.097 382.769C506.023 383.31 513.832 385.447 517.638 384.89C521.445 384.333 526.064 382.618 528.02 379.082C528.505 378.265 528.813 377.355 528.923 376.411C529.033 375.467 528.943 374.511 528.659 373.604C528.375 372.697 527.904 371.86 527.275 371.148C526.647 370.435 525.875 369.863 525.011 369.468C519.745 367.226 511.018 372.688 507.663 376.539C507.377 376.87 503.45 382.558 503.54 382.558H503.661C502.277 383.415 500.802 384.348 499.147 385.402C496.228 387.358 492.933 389.599 489.533 392.278C485.85 395.133 482.333 398.198 479.001 401.456C475.232 405.091 471.793 409.054 468.724 413.297L468.619 413.462C469.13 411.867 470.439 407.444 470.5 407.007C471.342 401.967 470.033 391.751 464.963 389.118C464.11 388.7 463.179 388.468 462.23 388.435C461.281 388.403 460.337 388.571 459.457 388.929C458.578 389.287 457.784 389.826 457.128 390.512C456.472 391.198 455.968 392.015 455.649 392.909C454.145 396.656 455.77 401.365 457.741 404.63C459.967 408.301 467.671 413.552 468.273 413.974C465.253 418.369 462.534 422.964 460.133 427.726C458.719 430.494 457.38 433.323 456.071 436.166C456.477 434.782 456.823 433.533 456.853 433.353C457.711 428.312 456.402 418.096 451.331 415.463C450.477 415.046 449.545 414.813 448.595 414.78C447.646 414.748 446.7 414.916 445.819 415.273C444.939 415.631 444.144 416.171 443.486 416.857C442.829 417.543 442.323 418.36 442.003 419.255C440.498 423.001 442.123 427.711 444.094 430.976C446.065 434.241 452.58 438.89 454.31 440.093C453.814 441.192 453.317 442.275 452.806 443.388C450.474 448.67 448.156 453.921 445.749 459.066C444.892 460.872 443.989 462.617 443.086 464.362C443.447 463.129 443.733 462.075 443.763 461.91C444.621 456.885 443.312 446.653 438.226 444.02C437.372 443.608 436.44 443.38 435.492 443.351C434.544 443.322 433.6 443.492 432.722 443.851C431.844 444.21 431.051 444.749 430.395 445.434C429.739 446.119 429.234 446.934 428.913 447.827C427.408 451.573 429.033 456.268 431.004 459.533C432.975 462.798 438.858 467.056 440.904 468.44C439.926 470.2 438.963 471.961 437.895 473.631C437.158 474.744 436.541 475.872 435.759 476.956L433.487 480.206C431.982 482.207 430.478 484.283 428.973 486.224C427.92 487.563 426.897 488.827 425.874 490.091C426.731 488.315 428.371 484.78 428.461 484.464C430.071 479.634 430.327 469.328 425.723 465.942C424.94 465.405 424.053 465.039 423.12 464.866C422.187 464.693 421.227 464.718 420.304 464.94C419.381 465.161 418.515 465.573 417.761 466.15C417.007 466.727 416.383 467.456 415.928 468.289C413.882 471.765 414.77 476.67 416.229 480.191C417.824 484.057 424.354 490.211 425.166 490.964C423.647 493.145 421.962 495.176 420.337 497.057Z" fill="#D9D9D9"/>
<path d="M540.975 463.25C540.975 463.355 547.279 460.422 547.656 460.241C552.004 457.578 558.835 449.844 557.481 444.292C557.232 443.372 556.792 442.515 556.188 441.776C555.585 441.038 554.832 440.436 553.979 440.01C553.127 439.584 552.193 439.343 551.241 439.303C550.288 439.263 549.338 439.425 548.453 439.779C544.646 441.118 542.164 445.436 541.02 449.062C539.696 453.29 540.975 463.25 540.975 463.25Z" fill="#D9D9D9"/>
</g>
<path d="M410.993 410.256L311.314 368.474L395.406 166.438L495.085 208.22L410.993 410.256Z" fill="#D9D9D9" stroke="#727272" stroke-width="1.50459" stroke-linecap="round" stroke-linejoin="round"/>
<path d="M475.074 228.848C473.364 228.14 471.824 227.074 470.559 225.722C469.294 224.37 468.333 222.763 467.74 221.008C467.148 219.254 466.937 217.394 467.122 215.551C467.308 213.709 467.885 211.928 468.815 210.327L411.641 186.344C411.494 186.855 411.318 187.357 411.114 187.848C410.456 189.438 409.49 190.881 408.271 192.095C407.052 193.308 405.605 194.269 404.014 194.921C402.422 195.573 400.717 195.903 398.997 195.892C397.277 195.882 395.576 195.531 393.992 194.86C393.736 194.754 393.496 194.619 393.255 194.499L329.821 347.275C330.077 347.365 330.333 347.44 330.574 347.545C332.293 348.243 333.842 349.304 335.113 350.655C336.385 352.006 337.351 353.616 337.943 355.374C338.536 357.132 338.743 358.998 338.548 360.843C338.354 362.689 337.764 364.471 336.818 366.067L394.067 390.05C394.205 389.538 394.376 389.035 394.579 388.545C395.242 386.966 396.209 385.532 397.426 384.326C398.643 383.12 400.086 382.166 401.671 381.518C403.257 380.87 404.955 380.54 406.668 380.548C408.381 380.556 410.076 380.901 411.656 381.564C412.152 381.775 412.634 382.031 413.16 382.286L476.654 229.39C476.114 229.251 475.586 229.069 475.074 228.848ZM393.992 308.2C390.096 306.566 386.771 303.814 384.439 300.29C382.107 296.767 380.872 292.631 380.89 288.406C380.908 284.181 382.179 280.056 384.541 276.553C386.903 273.05 390.251 270.326 394.161 268.725C398.071 267.125 402.368 266.719 406.509 267.56C410.65 268.402 414.448 270.452 417.423 273.451C420.399 276.451 422.418 280.265 423.226 284.413C424.034 288.56 423.594 292.853 421.962 296.75C420.88 299.341 419.297 301.692 417.305 303.67C415.313 305.647 412.95 307.213 410.352 308.276C407.754 309.34 404.972 309.881 402.164 309.868C399.357 309.855 396.58 309.288 393.992 308.2Z" fill="#D9D9D9" stroke="#727272" stroke-width="1.50459" stroke-linecap="round" stroke-linejoin="round"/>
<path d="M409.684 410.77L315.105 358.44L420.577 166.695L515.141 219.01L409.684 410.77Z" fill="#D9D9D9" stroke="#727272" stroke-width="1.50459" stroke-linecap="round" stroke-linejoin="round"/>
<path d="M493.024 237.346C491.524 236.518 490.202 235.403 489.134 234.063C488.066 232.724 487.272 231.188 486.798 229.541C486.325 227.895 486.18 226.172 486.373 224.47C486.566 222.767 487.093 221.12 487.924 219.622C488.197 219.156 488.493 218.704 488.811 218.268L434.496 188.176C434.299 188.69 434.073 189.192 433.819 189.68C432.141 192.704 429.332 194.938 426.009 195.891C422.686 196.845 419.12 196.44 416.094 194.766C415.855 194.64 415.624 194.499 415.402 194.345L335.81 339.357C336.056 339.46 336.297 339.575 336.532 339.703C339.558 341.378 341.795 344.185 342.751 347.509C343.708 350.833 343.305 354.4 341.632 357.427C341.366 357.897 341.07 358.35 340.745 358.781L395.045 388.873C395.247 388.358 395.478 387.856 395.737 387.368C396.565 385.868 397.68 384.547 399.02 383.478C400.359 382.41 401.895 381.616 403.542 381.143C405.188 380.669 406.911 380.524 408.614 380.717C410.316 380.911 411.963 381.437 413.461 382.268C413.93 382.537 414.382 382.834 414.816 383.155L494.559 238.023C494.032 237.834 493.519 237.608 493.024 237.346ZM403.862 307.475C400.162 305.427 397.151 302.329 395.212 298.571C393.273 294.813 392.492 290.564 392.967 286.362C393.443 282.159 395.154 278.193 397.885 274.963C400.615 271.734 404.242 269.386 408.306 268.218C412.371 267.05 416.69 267.113 420.718 268.4C424.747 269.687 428.303 272.14 430.937 275.448C433.572 278.757 435.166 282.772 435.518 286.986C435.87 291.201 434.965 295.425 432.916 299.124C430.169 304.083 425.566 307.749 420.118 309.315C414.67 310.881 408.822 310.219 403.862 307.475Z" fill="#D9D9D9" stroke="#727272" stroke-width="1.50459" stroke-linecap="round" stroke-linejoin="round"/>
<path d="M407.939 411.208L321.516 346.3L452.505 171L538.929 235.908L407.939 411.208Z" fill="#D9D9D9" stroke="#727272" stroke-width="1.50459" stroke-linecap="round" stroke-linejoin="round"/>
<path d="M514.479 250.997C513.101 249.969 511.939 248.679 511.061 247.201C510.184 245.723 509.607 244.085 509.365 242.383C509.123 240.681 509.221 238.948 509.652 237.284C510.083 235.619 510.839 234.057 511.876 232.686C512.204 232.256 512.561 231.849 512.944 231.467L463.293 194.184C463.022 194.656 462.726 195.113 462.405 195.553C460.326 198.314 457.237 200.137 453.815 200.622C450.393 201.107 446.919 200.215 444.155 198.141C443.929 197.975 443.733 197.795 443.523 197.629L344.626 330.214C344.852 330.364 345.077 330.499 345.288 330.665C348.052 332.744 349.879 335.835 350.367 339.259C350.855 342.684 349.964 346.162 347.891 348.931C347.563 349.361 347.206 349.768 346.823 350.149L396.474 387.418C396.731 386.946 397.023 386.493 397.347 386.064C398.376 384.695 399.665 383.541 401.14 382.67C402.615 381.799 404.248 381.227 405.944 380.987C407.64 380.747 409.367 380.843 411.026 381.27C412.685 381.697 414.243 382.447 415.612 383.476C416.043 383.798 416.45 384.15 416.831 384.529L515.863 251.885C515.384 251.618 514.921 251.321 514.479 250.997ZM416.47 308.171C413.09 305.631 410.538 302.146 409.138 298.157C407.738 294.167 407.553 289.852 408.605 285.756C409.658 281.661 411.901 277.97 415.051 275.15C418.201 272.329 422.116 270.506 426.302 269.911C430.489 269.315 434.757 269.975 438.569 271.805C442.38 273.636 445.563 276.555 447.716 280.195C449.868 283.834 450.893 288.03 450.661 292.252C450.428 296.474 448.95 300.532 446.411 303.913C444.722 306.156 442.607 308.044 440.188 309.47C437.768 310.895 435.092 311.829 432.311 312.219C429.53 312.609 426.7 312.447 423.982 311.742C421.264 311.037 418.711 309.803 416.47 308.111V308.171Z" fill="#D9D9D9" stroke="#727272" stroke-width="1.50459" stroke-linecap="round" stroke-linejoin="round"/>
<path d="M406.209 411.403L329.234 335.526L482.492 179.305L559.452 255.181L406.209 411.403Z" fill="#D9D9D9" stroke="#727272" stroke-width="1.50459" stroke-linecap="round" stroke-linejoin="round"/>
<path d="M533.211 266.882C530.747 264.454 529.349 261.146 529.323 257.687C529.298 254.228 530.648 250.9 533.076 248.436C533.46 248.056 533.867 247.699 534.294 247.367L490.105 203.734C489.774 204.158 489.423 204.565 489.051 204.953C486.623 207.417 483.316 208.815 479.856 208.841C476.397 208.866 473.069 207.516 470.605 205.089C470.413 204.899 470.232 204.698 470.063 204.487L354.315 322.672C354.511 322.853 354.722 323.018 354.917 323.214C357.381 325.642 358.78 328.95 358.805 332.409C358.83 335.868 357.481 339.196 355.053 341.66C354.662 342.036 354.255 342.397 353.834 342.728L398.024 386.361C398.351 385.926 398.708 385.514 399.092 385.128C400.293 383.908 401.723 382.937 403.299 382.27C404.876 381.604 406.568 381.254 408.28 381.241C409.991 381.229 411.689 381.553 413.275 382.197C414.861 382.841 416.304 383.79 417.523 384.992C417.903 385.377 418.26 385.784 418.592 386.211L534.445 267.935C534.013 267.609 533.601 267.257 533.211 266.882ZM428.462 310.365C425.455 307.397 423.395 303.604 422.543 299.466C421.692 295.328 422.086 291.03 423.676 287.116C425.267 283.202 427.982 279.847 431.479 277.476C434.975 275.105 439.096 273.824 443.321 273.794C447.546 273.765 451.684 274.988 455.214 277.311C458.743 279.633 461.505 282.949 463.15 286.841C464.794 290.733 465.248 295.024 464.454 299.174C463.66 303.324 461.654 307.145 458.689 310.154C456.718 312.154 454.373 313.745 451.788 314.838C449.202 315.931 446.426 316.504 443.619 316.523C440.812 316.543 438.028 316.009 435.427 314.952C432.827 313.896 430.46 312.337 428.462 310.365Z" fill="#D9D9D9" stroke="#727272" stroke-width="1.50459" stroke-linecap="round" stroke-linejoin="round"/>
<path d="M308.336 394.487L169.914 482.445L22.7197 249.956L161.142 161.998C163.563 160.461 166.494 159.948 169.293 160.571C172.092 161.195 174.528 162.904 176.067 165.323L311.721 379.561C312.479 380.764 312.993 382.103 313.234 383.504C313.474 384.905 313.436 386.34 313.121 387.726C312.807 389.112 312.223 390.422 311.401 391.582C310.58 392.743 309.539 393.73 308.336 394.487Z" fill="#D9D9D9" stroke="#727272" stroke-width="1.50459" stroke-linecap="round" stroke-linejoin="round"/>
<path d="M304.439 394.639L166.017 482.598L18.8379 250.108L157.26 162.15C159.681 160.613 162.612 160.1 165.411 160.724C168.21 161.347 170.646 163.056 172.186 165.475L307.824 379.714C308.583 380.916 309.096 382.256 309.337 383.657C309.577 385.057 309.539 386.492 309.224 387.878C308.91 389.264 308.326 390.575 307.504 391.735C306.683 392.895 305.642 393.882 304.439 394.639Z" fill="#D9D9D9" stroke="#727272" stroke-width="1.50459" stroke-linecap="round" stroke-linejoin="round"/>
<path d="M299.925 397.711L161.503 485.669L14.3086 253.18L152.731 165.222C155.154 163.684 158.088 163.171 160.889 163.794C163.69 164.417 166.129 166.127 167.671 168.547L303.31 382.785C304.068 383.987 304.582 385.327 304.823 386.728C305.063 388.129 305.025 389.563 304.71 390.949C304.396 392.336 303.811 393.646 302.99 394.806C302.169 395.966 301.127 396.953 299.925 397.711Z" fill="#D9D9D9" stroke="#727272" stroke-width="1.50459" stroke-linecap="round" stroke-linejoin="round"/>
<path d="M88.2742 282.08L77.6367 265.349L81.7894 262.776C82.6024 262.208 83.5537 261.87 84.5428 261.798C85.3784 261.777 86.1962 262.042 86.8599 262.55C87.6664 263.154 88.3463 263.911 88.861 264.777C89.3888 265.551 89.7288 266.437 89.854 267.365C89.9667 268.182 89.8193 269.014 89.4327 269.742C88.9753 270.557 88.311 271.237 87.5068 271.713L85.6562 272.872L90.6063 280.666L88.2742 282.08ZM84.603 271.127L85.6712 270.449C86.2429 270.132 86.7526 269.714 87.1758 269.216C87.3203 269.03 87.4244 268.817 87.4814 268.589C87.5384 268.361 87.547 268.123 87.5068 267.892C87.3689 267.258 87.1026 266.659 86.7244 266.131C86.3541 265.5 85.904 264.918 85.3854 264.401C85.2179 264.234 85.0135 264.109 84.7887 264.036C84.5639 263.963 84.325 263.943 84.0914 263.98C83.4104 264.141 82.7668 264.433 82.1956 264.837L81.0973 265.529L84.603 271.127Z" fill="#D9D9D9"/>
<path d="M96.5046 276.843L89.418 257.855L91.6749 256.426L105.878 270.885L103.666 272.284L100.221 268.568L96.8205 270.734L98.6862 275.459L96.5046 276.843ZM96.0833 268.794L98.8668 267.033L92.6679 260.383L96.0833 268.794Z" fill="#D9D9D9"/>
<path d="M111.64 267.483C110.816 268.054 109.843 268.372 108.841 268.401C107.929 268.389 107.041 268.112 106.284 267.603C105.426 267.021 104.681 266.287 104.087 265.437L105.802 263.571C106.216 264.11 106.674 264.613 107.171 265.076C107.596 265.489 108.111 265.798 108.676 265.978C108.971 266.041 109.276 266.041 109.572 265.979C109.867 265.917 110.146 265.794 110.391 265.617C110.655 265.475 110.886 265.278 111.067 265.039C111.249 264.8 111.377 264.526 111.444 264.233C111.515 263.613 111.348 262.99 110.978 262.488C110.597 261.82 110.012 261.292 109.308 260.983C108.595 260.727 107.86 260.541 107.111 260.427L102.733 259.734C101.942 259.623 101.183 259.346 100.506 258.922C99.8028 258.43 99.2128 257.794 98.7756 257.056C98.4128 256.554 98.1574 255.981 98.0254 255.376C97.8934 254.77 97.8876 254.144 98.0083 253.536C98.3476 252.332 99.1477 251.31 100.235 250.692C100.821 250.307 101.467 250.023 102.146 249.849C102.724 249.706 103.328 249.706 103.906 249.849C104.512 250.019 105.079 250.305 105.576 250.692C106.18 251.179 106.726 251.734 107.201 252.347L105.561 254.152C105.198 253.66 104.79 253.201 104.343 252.783C103.968 252.426 103.498 252.185 102.988 252.091C102.415 252.054 101.846 252.204 101.365 252.519C100.885 252.834 100.52 253.296 100.325 253.836C100.268 254.129 100.273 254.43 100.34 254.721C100.407 255.011 100.536 255.284 100.717 255.522C100.975 255.963 101.336 256.334 101.77 256.605C102.235 256.863 102.746 257.026 103.274 257.086L107.683 257.778C108.726 257.924 109.741 258.228 110.692 258.681C111.708 259.183 112.56 259.967 113.144 260.938C113.628 261.677 113.917 262.525 113.987 263.406C114.023 264.199 113.835 264.986 113.445 265.678C112.999 266.417 112.38 267.037 111.64 267.483Z" fill="#D9D9D9"/>
<path d="M121.405 261.27C120.581 261.84 119.609 262.159 118.607 262.188C117.699 262.178 116.815 261.9 116.064 261.39C115.2 260.816 114.454 260.08 113.867 259.224L115.643 257.358C116.052 257.9 116.511 258.404 117.012 258.863C117.436 259.277 117.951 259.586 118.517 259.765C118.812 259.829 119.117 259.83 119.413 259.767C119.708 259.705 119.987 259.581 120.232 259.404C120.497 259.267 120.729 259.074 120.911 258.837C121.093 258.601 121.221 258.327 121.285 258.035C121.364 257.412 121.203 256.783 120.834 256.275C120.443 255.609 119.854 255.083 119.149 254.77C118.441 254.514 117.711 254.327 116.967 254.213L112.574 253.521C111.783 253.409 111.024 253.133 110.347 252.709C109.644 252.217 109.054 251.581 108.616 250.843C108.254 250.34 107.998 249.768 107.866 249.163C107.734 248.557 107.728 247.931 107.849 247.322C108.196 246.122 109.001 245.105 110.091 244.494C110.673 244.108 111.313 243.819 111.987 243.636C112.569 243.486 113.18 243.486 113.762 243.636C114.368 243.8 114.935 244.081 115.432 244.464C116.035 244.947 116.576 245.503 117.042 246.119L115.402 247.924C115.039 247.431 114.631 246.973 114.183 246.555C113.813 246.192 113.34 245.951 112.829 245.863C112.258 245.833 111.691 245.986 111.212 246.3C110.733 246.614 110.367 247.072 110.166 247.608C110.112 247.901 110.119 248.202 110.186 248.492C110.254 248.782 110.38 249.054 110.557 249.293C110.82 249.735 111.18 250.111 111.611 250.392C112.083 250.632 112.591 250.794 113.115 250.873L117.524 251.55C118.535 251.71 119.518 252.014 120.443 252.453C121.456 252.96 122.306 253.742 122.895 254.71C123.385 255.446 123.675 256.296 123.738 257.177C123.773 257.971 123.585 258.758 123.196 259.449C122.761 260.196 122.145 260.822 121.405 261.27Z" fill="#D9D9D9"/>
<path d="M127.107 257.385L116.47 240.654L120.622 238.021C121.431 237.443 122.384 237.099 123.376 237.028C124.21 237.014 125.026 237.278 125.693 237.78C126.5 238.39 127.179 239.152 127.694 240.022C128.228 240.792 128.569 241.68 128.687 242.61C128.8 243.422 128.652 244.249 128.266 244.972C127.812 245.79 127.147 246.471 126.34 246.943L124.489 248.117L129.439 255.895L127.107 257.385ZM123.436 246.447L124.504 245.755C125.079 245.442 125.59 245.024 126.009 244.521C126.151 244.335 126.253 244.121 126.308 243.892C126.362 243.664 126.368 243.427 126.325 243.197C126.187 242.565 125.926 241.967 125.557 241.436C125.192 240.806 124.741 240.229 124.218 239.721C124.051 239.554 123.847 239.429 123.622 239.356C123.397 239.283 123.158 239.263 122.924 239.3C122.241 239.448 121.596 239.735 121.029 240.142L119.93 240.85L123.436 246.447Z" fill="#D9D9D9"/>
<path d="M141.417 248.56C140.501 249.203 139.42 249.569 138.302 249.613C137.336 249.601 136.403 249.261 135.654 248.65C134.756 247.91 133.988 247.026 133.382 246.032L129.35 239.698C128.712 238.746 128.253 237.685 127.996 236.568C127.776 235.655 127.876 234.693 128.282 233.845C128.808 232.863 129.6 232.049 130.569 231.498C131.479 230.854 132.554 230.483 133.668 230.43C134.607 230.433 135.519 230.75 136.256 231.332C137.151 232.038 137.91 232.899 138.498 233.875L142.545 240.24C143.175 241.198 143.638 242.256 143.914 243.369C144.137 244.309 144.053 245.295 143.674 246.183C143.172 247.18 142.387 248.007 141.417 248.56ZM140.258 246.724C140.775 246.438 141.182 245.988 141.417 245.445C141.584 244.958 141.584 244.428 141.417 243.941C141.199 243.335 140.906 242.759 140.544 242.226L135.895 234.883C135.555 234.34 135.157 233.835 134.706 233.379C134.36 233.026 133.903 232.803 133.412 232.747C132.822 232.746 132.246 232.936 131.772 233.288C131.258 233.574 130.844 234.01 130.584 234.537C130.4 235.022 130.4 235.557 130.584 236.042C130.793 236.641 131.076 237.212 131.426 237.742L136.09 245.069C136.428 245.619 136.832 246.124 137.294 246.574C137.645 246.942 138.113 247.176 138.618 247.236C139.206 247.246 139.781 247.066 140.258 246.724Z" fill="#D9D9D9"/>
<path d="M148.157 244.017L137.52 227.286L140.89 225.135C141.801 224.512 142.822 224.068 143.899 223.826C144.761 223.654 145.657 223.793 146.427 224.217C147.32 224.773 148.059 225.544 148.578 226.459C148.968 227.046 149.277 227.684 149.496 228.354C149.698 228.918 149.765 229.521 149.692 230.115C149.601 230.67 149.362 231.189 149 231.619L156.703 238.495L154.461 239.925L147.284 233.47L145.464 234.613L150.444 242.467L148.157 244.017ZM144.441 233.004L145.328 232.447C145.906 232.12 146.417 231.686 146.833 231.168C147.13 230.76 147.259 230.254 147.194 229.754C147.076 229.084 146.814 228.447 146.427 227.888C146.013 227.105 145.351 226.481 144.546 226.113C144.096 226.04 143.636 226.066 143.197 226.188C142.758 226.31 142.351 226.526 142.003 226.82L140.965 227.467L144.441 233.004Z" fill="#D9D9D9"/>
<path d="M160.781 236.024L151.241 220.979L148.413 222.784L147.239 221.099L155.153 216.059L156.252 217.804L153.498 219.549L163.037 234.595L160.781 236.024Z" fill="#D9D9D9"/>
<path d="M220.699 340.11C227.277 311.908 209.748 283.713 181.546 277.134C153.344 270.556 125.149 288.085 118.57 316.287C111.992 344.489 129.521 372.684 157.723 379.263C185.925 385.841 214.12 368.312 220.699 340.11Z" stroke="#D9D9D9" stroke-width="1.50459" stroke-miterlimit="10"/>
<path d="M197.732 372.479C208.209 365.819 204.11 340.608 188.576 316.168C173.041 291.728 151.955 277.314 141.478 283.973C131 290.633 135.1 315.844 150.634 340.284C166.168 364.724 187.254 379.138 197.732 372.479Z" stroke="#D9D9D9" stroke-width="1.50459" stroke-miterlimit="10"/>
<path d="M122.744 305.399L169.161 275.879" stroke="#D9D9D9" stroke-width="1.50459" stroke-miterlimit="10"/>
<path d="M117.509 335.293L198.456 283.852" stroke="#D9D9D9" stroke-width="1.50459" stroke-miterlimit="10"/>
<path d="M141.055 372.336L222.002 320.879" stroke="#D9D9D9" stroke-width="1.50459" stroke-miterlimit="10"/>
<path d="M125.271 356.389L214.253 299.816" stroke="#D9D9D9" stroke-width="1.50459" stroke-miterlimit="10"/>
<path d="M170.786 380.978L217.203 351.473" stroke="#D9D9D9" stroke-width="1.50459" stroke-miterlimit="10"/>
<path d="M413.989 616.676C479.61 551.055 479.61 444.663 413.989 379.042C348.368 313.422 241.976 313.422 176.355 379.042C110.734 444.663 110.734 551.056 176.355 616.676C241.976 682.297 348.368 682.297 413.989 616.676Z" fill="#D9D9D9" stroke="#727272" stroke-width="1.50459" stroke-linecap="round" stroke-linejoin="round"/>
<path d="M261.422 653.328C270.43 655.288 279.593 656.456 288.805 656.819" stroke="#D9D9D9" stroke-width="1.50459" stroke-linecap="round" stroke-linejoin="round"/>
<path d="M240.824 647.348C245.388 649.003 250.022 650.457 254.727 651.711" stroke="#D9D9D9" stroke-width="1.50459" stroke-linecap="round" stroke-linejoin="round"/>
<path d="M142.169 454.344C131.477 492.004 135.043 532.284 152.183 567.48C169.324 602.677 198.836 630.321 235.077 645.126" stroke="#D9D9D9" stroke-width="1.50459" stroke-linecap="round" stroke-linejoin="round"/>
<path d="M163.549 408.59C157.803 417.06 152.885 426.064 148.864 435.477" stroke="#D9D9D9" stroke-width="1.50459" stroke-linecap="round" stroke-linejoin="round"/>
<path d="M272.391 423.23L289.528 426.781L295.366 432.83L302.979 434.003L305.401 441.225L303.626 446.115L298.435 448.492L285.721 446.416L285.375 444.866L291.379 440.669L287.226 433.01L275.851 431.446L269.803 426.255L272.391 423.23Z" fill="#D9D9D9"/>
<path d="M410.452 581.297L396.911 579.01L380.451 576.934L368.414 579.612L356.603 579.778L344.762 585.27L337.841 587.226L333.552 588.173L326.421 594.658L319.319 599.503L307.282 595.215L307.583 583.705L300.361 582.456L292.583 584.186L290.627 580.936L289.859 573.759L286.263 570.479L280.982 572.465L280.29 576.708L273.76 578.559L266.358 572.857L261.949 564.025L265.38 551.823L276.83 550.092L280.561 552.139L285.225 551.1L290.296 546.301L295.697 546.722L305.387 557.254L308.02 556.261L305.251 547.474L301.881 543.322L301.023 535.799L314.038 526.38L312.789 511.545L317.89 505.09L320.899 495.009L324.63 493.369L332.274 485.545L331.973 482.341L325.834 484.116L323.983 481.257L319.695 482.205L313.421 485.214L315.407 479.452L328.166 472.531L330.513 468.348L337.856 475.69L342.144 478.429L347.244 475.66L343.784 471.146L334.32 467.114L322.644 458.688L311.435 454.175L301.746 454.701L296.194 451.045L289.573 450.85L289.137 452.58L290.867 464.045L293.29 467.581L292.552 480.821L283.374 476.307V470.59L274.347 468.513L269.833 465.008L269.607 454.852L279.086 444.169L277.792 434.645L273.595 435.984L270.089 433.095L267.606 427.559L264.793 427.769L264.597 434.299L260.49 436.029L255.57 422.879L252.034 421.63L246.016 420.502L240.479 425.016L249.912 430.688L252.922 436.962L236.567 429.56L224.53 421.209L221.416 410.873L210.598 410L203.947 416.786C202.31 418.349 200.593 419.825 198.802 421.209C195.883 422.633 192.866 423.845 189.774 424.835L189.684 431.801L180.807 434.179L182.537 438.286L197.462 437.429L206.671 443.959L209.68 457.59L208.07 470.605L211.696 483.273L205.031 504.774L209.018 533.707L216.149 549.28L223.973 560.624L229.992 560.098L226.651 554.305L222.514 550.318L218.662 542.193L221.987 540.689L230.548 553.493L237.214 565.093L239.456 575.219L248.844 582.531L264.326 589.272L285.782 590.22L293.305 594.733L299.323 599.924L307.282 602.648L316.31 603.084L324.781 600.782C324.781 600.782 325.262 604.769 325.684 606.71C326.105 608.651 322.133 616.49 322.133 616.49L319.59 625.231L324.6 633.1L333.944 634.695L348.779 644.475L354.797 645.604L356.091 651.441L357.37 654.014C386.575 642.4 411.917 622.794 430.493 597.442L430.072 594.568L436.346 573.158L430.508 570.78L410.452 581.297Z" fill="#D9D9D9"/>
<path d="M416.786 418.533L410.858 412.093L403.501 404.736L399.363 393.406L406.63 393.015L406.149 389.043L401.003 389.78L404.855 386.876L408.917 383.115L408.06 379.218L402.041 374.027L399.183 365.872C370.409 343.213 335.023 330.57 298.405 329.867C261.787 329.164 225.942 340.438 196.319 361.975L206.701 366.339L202.819 374.569L195.762 377.758L197.267 388.441L194.423 390.307L191.414 395.452L193.355 402.373L200.156 401.681L198.892 408.903L205.512 407.399L213.607 390.487L213.396 383.987L224.124 380.798L225.809 375.517L236.838 371.845L236.537 364.969L244.616 362.758C244.616 362.758 249.777 358.349 250.936 358.093C253.296 358.073 255.655 358.229 257.992 358.56L264.868 361.945L273.038 360.125L279.056 354.287L288.174 353.083C289.648 353.652 291.238 353.859 292.808 353.685C294.749 353.249 299.985 349.171 299.985 349.171L312.834 353.685L318.281 356.152L319.575 361.99L325.593 361.464L326.767 357.537L332.349 358.74L332.65 361.945L321.651 367.663L330.182 374.749L345.92 379.428L353.443 385.913L362.185 384.785L363.268 380.467L366.202 378.962L354.361 373.425L347.951 374.027L352.661 371.349L346.522 365.767L353.052 363.916L362.666 366.685L366.684 375.592L372.085 379.699L378.103 390.231L388.049 394.55L390.892 407.399L401.154 411.251L401.71 415.614V420.94L405.607 427.425L407.112 430.765L413.988 430.464L415.643 423.152L416.786 418.533Z" fill="#D9D9D9"/>
<path d="M413.131 378.191L413.627 380.433L413.07 387.084L415.448 392.274L420.082 392.891L421.722 400.279L416.621 399.376L420.112 420.651L417.343 430.265L422.88 440.466L428.974 444.017L433.653 465.081L442.335 480.308L450.55 491.562L460.029 491.908L461.413 483.422L462.466 482.159C461.806 475.172 460.715 468.233 459.201 461.38C452.216 429.777 436.212 400.88 413.131 378.191Z" fill="#D9D9D9"/>
<path d="M322.659 395.723L294.463 390.141L283.254 393.044L282.17 401.034L276.378 397.017L268.253 400.868L270.314 413.883L278.454 417.389L281.869 408.873L289.016 413.417L303.415 421.24L308.26 432.013L321.23 442.606L336.968 436.256L335.282 430.509L330.317 424.656L326.074 409.264L328.497 401.786L322.659 395.723Z" fill="#D9D9D9"/>
<path d="M345.589 399.619L339.405 399.363L335.298 404.765L340.519 415.447L345.589 414.319V399.619Z" fill="#D9D9D9"/>
<path d="M383.43 398.972L368.64 394.91L364.878 390.848L362.02 392.698L366.473 399.875L371.062 409.49L377.427 410.528L378.239 408.707L373.439 403.652L384.423 405.292L383.43 398.972Z" fill="#D9D9D9"/>
<path d="M300.963 564.762L299.76 566.658L312.218 567.575L318.101 571.984L325.669 571.126L327.444 566.236L318.146 566.658L300.963 564.762Z" fill="#D9D9D9"/>
<path d="M337.254 564.461L329.596 568.614L331.461 571.472L341.587 569.215L342.836 565.68L339.421 566.838L337.254 564.461Z" fill="#D9D9D9"/>
<path d="M272.391 423.23L289.528 426.781L295.366 432.83L302.979 434.003L305.401 441.225L303.626 446.115L298.435 448.492L285.721 446.416L285.375 444.866L291.379 440.669L287.226 433.01L275.851 431.446L269.803 426.255L272.391 423.23Z" stroke="#D9D9D9" stroke-width="1.50459" stroke-linecap="round" stroke-linejoin="round"/>
<path d="M410.452 581.297L396.911 579.01L380.451 576.934L368.414 579.612L356.603 579.778L344.762 585.27L337.841 587.226L333.552 588.173L326.421 594.658L319.319 599.503L307.282 595.215L307.583 583.705L300.361 582.456L292.583 584.186L290.627 580.936L289.859 573.759L286.263 570.479L280.982 572.465L280.29 576.708L273.76 578.559L266.358 572.857L261.949 564.025L265.38 551.823L276.83 550.092L280.561 552.139L285.225 551.1L290.296 546.301L295.697 546.722L305.387 557.254L308.02 556.261L305.251 547.474L301.881 543.322L301.023 535.799L314.038 526.38L312.789 511.545L317.89 505.09L320.899 495.009L324.63 493.369L332.274 485.545L331.973 482.341L325.834 484.116L323.983 481.257L319.695 482.205L313.421 485.214L315.407 479.452L328.166 472.531L330.513 468.348L337.856 475.69L342.144 478.429L347.244 475.66L343.784 471.146L334.32 467.114L322.644 458.688L311.435 454.175L301.746 454.701L296.194 451.045L289.573 450.85L289.137 452.58L290.867 464.045L293.29 467.581L292.552 480.821L283.374 476.307V470.59L274.347 468.513L269.833 465.008L269.607 454.852L279.086 444.169L277.792 434.645L273.595 435.984L270.089 433.095L267.606 427.559L264.793 427.769L264.597 434.299L260.49 436.029L255.57 422.879L252.034 421.63L246.016 420.502L240.479 425.016L249.912 430.688L252.922 436.962L236.567 429.56L224.53 421.209L221.416 410.873L210.598 410L203.947 416.786C202.31 418.349 200.593 419.825 198.802 421.209C195.883 422.633 192.866 423.845 189.774 424.835L189.684 431.801L180.807 434.179L182.537 438.286L197.462 437.429L206.671 443.959L209.68 457.59L208.07 470.605L211.696 483.273L205.031 504.774L209.018 533.707L216.149 549.28L223.973 560.624L229.992 560.098L226.651 554.305L222.514 550.318L218.662 542.193L221.987 540.689L230.548 553.493L237.214 565.093L239.456 575.219L248.844 582.531L264.326 589.272L285.782 590.22L293.305 594.733L299.323 599.924L307.282 602.648L316.31 603.084L324.781 600.782C324.781 600.782 325.262 604.769 325.684 606.71C326.105 608.651 322.133 616.49 322.133 616.49L319.59 625.231L324.6 633.1L333.944 634.695L348.779 644.475L354.797 645.604L356.091 651.441L357.37 654.014C386.575 642.4 411.917 622.794 430.493 597.442L430.072 594.568L436.346 573.158L430.508 570.78L410.452 581.297Z" stroke="#D9D9D9" stroke-width="1.50459" stroke-linecap="round" stroke-linejoin="round"/>
<path d="M416.786 418.533L410.858 412.093L403.501 404.736L399.363 393.406L406.63 393.015L406.149 389.043L401.003 389.78L404.855 386.876L408.917 383.115L408.06 379.218L402.041 374.027L399.183 365.872C370.409 343.213 335.023 330.57 298.405 329.867C261.787 329.164 225.942 340.438 196.319 361.975L206.701 366.339L202.819 374.569L195.762 377.758L197.267 388.441L194.423 390.307L191.414 395.452L193.355 402.373L200.156 401.681L198.892 408.903L205.512 407.399L213.607 390.487L213.396 383.987L224.124 380.798L225.809 375.517L236.838 371.845L236.537 364.969L244.616 362.758C244.616 362.758 249.777 358.349 250.936 358.093C253.296 358.073 255.655 358.229 257.992 358.56L264.868 361.945L273.038 360.125L279.056 354.287L288.174 353.083C289.648 353.652 291.238 353.859 292.808 353.685C294.749 353.249 299.985 349.171 299.985 349.171L312.834 353.685L318.281 356.152L319.575 361.99L325.593 361.464L326.767 357.537L332.349 358.74L332.65 361.945L321.651 367.663L330.182 374.749L345.92 379.428L353.443 385.913L362.185 384.785L363.268 380.467L366.202 378.962L354.361 373.425L347.951 374.027L352.661 371.349L346.522 365.767L353.052 363.916L362.666 366.685L366.684 375.592L372.085 379.699L378.103 390.231L388.049 394.55L390.892 407.399L401.154 411.251L401.71 415.614V420.94L405.607 427.425L407.112 430.765L413.988 430.464L415.643 423.152L416.786 418.533Z" stroke="#D9D9D9" stroke-width="1.50459" stroke-linecap="round" stroke-linejoin="round"/>
<path d="M413.131 378.191L413.627 380.433L413.07 387.084L415.448 392.274L420.082 392.891L421.722 400.279L416.621 399.376L420.112 420.651L417.343 430.265L422.88 440.466L428.974 444.017L433.653 465.081L442.335 480.308L450.55 491.562L460.029 491.908L461.413 483.422L462.466 482.159C461.806 475.172 460.715 468.233 459.201 461.38C452.216 429.777 436.212 400.88 413.131 378.191Z" stroke="#D9D9D9" stroke-width="1.50459" stroke-linecap="round" stroke-linejoin="round"/>
<path d="M322.659 395.723L294.463 390.141L283.254 393.044L282.17 401.034L276.378 397.017L268.253 400.868L270.314 413.883L278.454 417.389L281.869 408.873L289.016 413.417L303.415 421.24L308.26 432.013L321.23 442.606L336.968 436.256L335.282 430.509L330.317 424.656L326.074 409.264L328.497 401.786L322.659 395.723Z" stroke="#D9D9D9" stroke-width="1.50459" stroke-linecap="round" stroke-linejoin="round"/>
<path d="M345.589 399.619L339.405 399.363L335.298 404.765L340.519 415.447L345.589 414.319V399.619Z" stroke="#D9D9D9" stroke-width="1.50459" stroke-linecap="round" stroke-linejoin="round"/>
<path d="M383.43 398.972L368.64 394.91L364.878 390.848L362.02 392.698L366.473 399.875L371.062 409.49L377.427 410.528L378.239 408.707L373.439 403.652L384.423 405.292L383.43 398.972Z" stroke="#D9D9D9" stroke-width="1.50459" stroke-linecap="round" stroke-linejoin="round"/>
<path d="M300.963 564.762L299.76 566.658L312.218 567.575L318.101 571.984L325.669 571.126L327.444 566.236L318.146 566.658L300.963 564.762Z" stroke="#D9D9D9" stroke-width="1.50459" stroke-linecap="round" stroke-linejoin="round"/>
<path d="M337.254 564.461L329.596 568.614L331.461 571.472L341.587 569.215L342.836 565.68L339.421 566.838L337.254 564.461Z" stroke="#D9D9D9" stroke-width="1.50459" stroke-linecap="round" stroke-linejoin="round"/>
<path d="M451.496 383.918C448.438 383.918 445.409 384.521 442.584 385.693C439.759 386.865 437.193 388.582 435.032 390.747C432.872 392.912 431.159 395.481 429.993 398.309C428.827 401.136 428.229 404.166 428.235 407.224C428.235 420.073 451.496 445.997 451.496 445.997C451.496 445.997 474.772 420.073 474.772 407.224C474.776 404.165 474.177 401.135 473.009 398.307C471.841 395.48 470.127 392.911 467.966 390.746C465.804 388.581 463.237 386.864 460.411 385.693C457.585 384.521 454.556 383.918 451.496 383.918ZM451.496 417.425C449.466 417.434 447.479 416.84 445.787 415.717C444.095 414.595 442.775 412.995 441.994 411.121C441.213 409.247 441.006 407.183 441.4 405.191C441.794 403.199 442.77 401.369 444.206 399.934C445.642 398.498 447.472 397.521 449.463 397.127C451.455 396.734 453.519 396.94 455.393 397.721C457.267 398.502 458.867 399.823 459.989 401.515C461.112 403.206 461.706 405.194 461.697 407.224C461.69 409.927 460.612 412.517 458.701 414.429C456.789 416.34 454.199 417.417 451.496 417.425Z" fill="#D9D9D9" stroke="#727272" stroke-width="1.50459" stroke-miterlimit="10"/>
<path d="M270.991 443.633C265.608 443.633 260.446 445.771 256.639 449.578C252.833 453.384 250.694 458.547 250.694 463.93C250.694 475.139 270.991 497.753 270.991 497.753C270.991 497.753 291.288 475.184 291.288 463.93C291.288 458.547 289.15 453.384 285.343 449.578C281.537 445.771 276.374 443.633 270.991 443.633ZM270.991 472.867C269.224 472.867 267.496 472.343 266.026 471.361C264.556 470.379 263.411 468.983 262.734 467.35C262.058 465.717 261.881 463.92 262.226 462.186C262.571 460.452 263.422 458.86 264.672 457.61C265.922 456.36 267.514 455.509 269.248 455.164C270.981 454.819 272.778 454.996 274.411 455.673C276.044 456.349 277.44 457.495 278.422 458.964C279.404 460.434 279.929 462.162 279.929 463.93C279.929 466.3 278.987 468.573 277.311 470.249C275.635 471.925 273.362 472.867 270.991 472.867Z" fill="#D9D9D9" stroke="#727272" stroke-width="1.50459" stroke-miterlimit="10"/>
<path d="M347.741 601.914C345.034 601.914 342.437 602.988 340.522 604.901C338.607 606.814 337.528 609.408 337.524 612.115C337.524 617.757 347.741 629.132 347.741 629.132C347.741 629.132 357.942 617.757 357.942 612.115C357.938 609.411 356.862 606.819 354.949 604.906C353.037 602.994 350.445 601.918 347.741 601.914ZM347.741 616.614C346.848 616.614 345.975 616.349 345.233 615.853C344.491 615.357 343.912 614.652 343.57 613.827C343.229 613.003 343.139 612.095 343.314 611.22C343.488 610.344 343.918 609.54 344.549 608.908C345.18 608.277 345.984 607.847 346.86 607.673C347.736 607.499 348.643 607.588 349.468 607.93C350.293 608.272 350.998 608.85 351.494 609.592C351.99 610.335 352.254 611.207 352.254 612.1C352.254 612.693 352.138 613.28 351.911 613.827C351.684 614.375 351.351 614.873 350.932 615.292C350.513 615.711 350.016 616.043 349.468 616.27C348.92 616.497 348.333 616.614 347.741 616.614Z" fill="#D9D9D9" stroke="#727272" stroke-width="1.50459" stroke-miterlimit="10"/>
<path d="M220.783 507.652C218.076 507.656 215.482 508.734 213.569 510.65C211.656 512.565 210.582 515.162 210.582 517.869C210.582 523.511 220.783 534.885 220.783 534.885C220.783 534.885 230.999 523.511 230.999 517.869C230.999 515.159 229.923 512.56 228.007 510.645C226.091 508.729 223.493 507.652 220.783 507.652ZM220.783 522.367C219.89 522.367 219.018 522.103 218.275 521.607C217.533 521.111 216.955 520.406 216.613 519.581C216.271 518.756 216.182 517.848 216.356 516.973C216.53 516.097 216.96 515.293 217.591 514.662C218.223 514.03 219.027 513.601 219.903 513.426C220.778 513.252 221.686 513.342 222.51 513.683C223.335 514.025 224.04 514.603 224.536 515.346C225.032 516.088 225.297 516.961 225.297 517.853C225.297 519.051 224.821 520.199 223.975 521.045C223.128 521.892 221.98 522.367 220.783 522.367Z" fill="#D9D9D9" stroke="#727272" stroke-width="1.50459" stroke-miterlimit="10"/>
<path d="M256.893 550.621C255.552 550.621 254.224 550.885 252.985 551.399C251.747 551.913 250.621 552.665 249.674 553.614C248.726 554.563 247.975 555.689 247.464 556.929C246.952 558.168 246.689 559.496 246.691 560.837C246.691 566.479 256.893 577.854 256.893 577.854C256.893 577.854 267.109 566.479 267.109 560.837C267.109 558.128 266.032 555.529 264.116 553.613C262.201 551.697 259.602 550.621 256.893 550.621ZM256.893 565.336C256 565.336 255.127 565.071 254.385 564.575C253.643 564.079 253.064 563.374 252.722 562.55C252.381 561.725 252.291 560.817 252.465 559.942C252.64 559.066 253.07 558.262 253.701 557.631C254.332 556.999 255.136 556.569 256.012 556.395C256.888 556.221 257.795 556.31 258.62 556.652C259.445 556.994 260.15 557.572 260.646 558.314C261.142 559.057 261.406 559.929 261.406 560.822C261.406 562.019 260.931 563.167 260.084 564.014C259.238 564.86 258.09 565.336 256.893 565.336Z" fill="#D9D9D9" stroke="#727272" stroke-width="1.50459" stroke-miterlimit="10"/>
<path d="M383.715 569.91C382.125 569.91 380.55 570.223 379.08 570.832C377.611 571.441 376.276 572.333 375.151 573.458C374.026 574.582 373.134 575.918 372.525 577.387C371.917 578.857 371.604 580.432 371.604 582.022C371.604 588.702 383.715 602.184 383.715 602.184C383.715 602.184 395.752 588.642 395.752 582.022C395.762 580.435 395.458 578.862 394.858 577.393C394.257 575.924 393.372 574.588 392.253 573.462C391.135 572.336 389.804 571.443 388.339 570.834C386.874 570.224 385.303 569.91 383.715 569.91ZM383.715 587.348C382.658 587.351 381.623 587.04 380.742 586.454C379.862 585.869 379.175 585.035 378.769 584.058C378.362 583.081 378.255 582.006 378.461 580.969C378.667 579.931 379.176 578.978 379.924 578.23C380.671 577.482 381.625 576.973 382.662 576.768C383.7 576.562 384.775 576.669 385.751 577.075C386.728 577.481 387.562 578.168 388.148 579.049C388.734 579.93 389.045 580.964 389.042 582.022C389.042 582.722 388.904 583.414 388.636 584.06C388.369 584.707 387.976 585.294 387.482 585.788C386.987 586.283 386.4 586.675 385.754 586.943C385.108 587.211 384.415 587.348 383.715 587.348Z" fill="#D9D9D9" stroke="#727272" stroke-width="1.50459" stroke-miterlimit="10"/>
<path d="M382.828 338.492C379.979 338.492 377.246 339.624 375.231 341.639C373.217 343.653 372.085 346.386 372.085 349.235C372.085 355.253 382.828 367.155 382.828 367.155C382.828 367.155 393.586 355.118 393.586 349.235C393.582 346.384 392.446 343.652 390.429 341.638C388.412 339.624 385.678 338.492 382.828 338.492ZM382.828 353.974C381.89 353.974 380.974 353.696 380.195 353.176C379.415 352.655 378.808 351.915 378.449 351.049C378.09 350.183 377.996 349.23 378.179 348.31C378.362 347.391 378.814 346.546 379.476 345.884C380.139 345.221 380.984 344.769 381.903 344.587C382.822 344.404 383.775 344.498 384.641 344.856C385.507 345.215 386.248 345.822 386.768 346.602C387.289 347.381 387.567 348.298 387.567 349.235C387.567 350.492 387.068 351.697 386.179 352.586C385.29 353.475 384.085 353.974 382.828 353.974Z" fill="#D9D9D9" stroke="#727272" stroke-width="1.50459" stroke-miterlimit="10"/>
<path d="M198.831 405.715C197.419 405.713 196.02 405.989 194.715 406.528C193.41 407.067 192.224 407.858 191.225 408.856C190.226 409.854 189.433 411.039 188.892 412.343C188.352 413.647 188.073 415.046 188.073 416.458C188.073 422.401 198.831 434.377 198.831 434.377C198.831 434.377 209.574 422.341 209.574 416.458C209.574 413.608 208.442 410.876 206.427 408.861C204.413 406.847 201.68 405.715 198.831 405.715ZM198.831 421.197C197.893 421.2 196.975 420.925 196.194 420.406C195.412 419.887 194.803 419.148 194.442 418.282C194.081 417.416 193.985 416.463 194.166 415.542C194.347 414.622 194.797 413.776 195.459 413.112C196.122 412.447 196.966 411.994 197.886 411.81C198.806 411.626 199.759 411.719 200.626 412.077C201.493 412.436 202.234 413.043 202.756 413.823C203.277 414.603 203.555 415.52 203.555 416.458C203.555 417.712 203.058 418.915 202.173 419.804C201.287 420.692 200.085 421.193 198.831 421.197Z" fill="#D9D9D9" stroke="#727272" stroke-width="1.50459" stroke-miterlimit="10"/>
<path d="M326.375 174.203C326.375 174.203 325.442 258.912 325.442 272.904C325.442 286.897 324.283 300.438 324.283 300.438C324.283 300.438 328.481 303.447 327.774 306.968C326.99 309.953 325.896 312.848 324.509 315.605C322.905 315.243 321.25 315.166 319.619 315.379C317.979 315.845 308.184 320.269 306.544 320.269C304.904 320.269 304.212 321.668 303.746 317.26C303.238 313.314 303.082 309.331 303.279 305.358C303.571 301.813 304.119 298.293 304.919 294.826L295.109 187.73L292.777 292.028C292.777 292.028 293.244 298.332 293.951 299.551C294.878 301.22 295.509 303.037 295.817 304.922C295.817 306.081 293.71 317.049 292.807 317.515C291.905 317.982 289.076 319.622 289.076 319.622C289.076 319.622 287.21 319.155 284.638 315.89C282.065 312.625 276.016 312.881 274.843 313.318L273.669 313.784C273.669 313.784 270.178 309.586 269.471 306.547C268.764 303.508 273.443 303.282 273.203 295.112C272.962 286.942 265.951 217.641 265.951 217.641L264.311 170.999L326.841 169.133L326.375 174.203Z" fill="#D9D9D9" stroke="#727272" stroke-width="1.50459" stroke-miterlimit="10"/>
<path d="M301.88 65.9336L276.919 67.5736L275.986 174.204C275.986 174.204 277.852 175.844 293.244 176.07C308.636 176.295 311.916 174.445 311.916 174.445L301.88 65.9336Z" fill="#D9D9D9" stroke="#727272" stroke-width="1.50459" stroke-miterlimit="10"/>
<path d="M300.346 13.4218C300.346 13.4218 306.455 22.0431 306.365 23.352C306.192 24.6401 305.941 25.9164 305.612 27.1737C305.612 27.1737 312.263 34.0346 311.631 34.5913L307.929 37.751C307.929 37.751 308.035 44.1756 308.035 45.1686C308.035 46.1616 309.449 48.6592 309.013 49.6824C308.508 50.799 307.811 51.8178 306.951 52.6915C306.184 53.3385 300.617 53.2332 300.617 53.2332L300.512 62.0651C300.512 62.0651 301.49 67.6321 300.617 69.5881C299.745 71.544 297.232 73.0787 290.913 73.4097C284.593 73.7407 281.509 71.5892 279.658 70.0545C277.808 68.5198 278.048 54.4369 277.928 52.2552C277.808 50.0736 277.717 45.9209 276.514 44.0702C275.31 42.2196 267.486 29.0243 266.162 25.7443C264.838 22.4643 264.733 19.0941 267.245 16.1601C269.758 13.2262 272.918 11.9021 273.264 10.2621C273.61 8.62212 273.264 6.99717 275.656 6.22983C277.398 5.77195 279.212 5.6595 280.997 5.89882C280.997 5.89882 285.586 0.346884 287.979 0.993857L290.386 1.64083C290.386 1.64083 297.036 -0.209815 300.527 2.73918C304.018 5.68817 304.71 10.3674 300.346 13.4218Z" fill="#D9D9D9" stroke="#727272" stroke-width="1.50459" stroke-miterlimit="10"/>
<path d="M301.595 28.8402C301.595 30.2244 302.016 31.3529 302.558 31.3529C303.099 31.3529 303.521 30.2244 303.521 28.8402C303.521 27.456 303.084 26.3125 302.558 26.3125C302.031 26.3125 301.595 27.4409 301.595 28.8402Z" fill="#D9D9D9" stroke="#727272" stroke-width="1.50459" stroke-miterlimit="10"/>
<path d="M273.188 10.2621C273.504 8.62212 273.188 6.99717 275.58 6.22983C277.322 5.77195 279.137 5.65949 280.922 5.89882C280.922 5.89882 285.511 0.346884 287.903 0.993857L290.31 1.64083C290.31 1.64083 296.961 -0.209815 300.451 2.73918C303.942 5.68817 304.709 10.3674 300.346 13.4218C300.346 13.4218 288.309 14.7308 289.814 16.9124C291.318 19.0941 291.995 20.8394 290.807 21.4262C289.618 22.013 284.157 24.7965 284.698 26.1054C285.24 27.4144 285.782 30.9051 285.029 31.1308C284.277 31.3565 284.367 30.9051 282.02 29.1598C279.673 27.4144 276.995 28.7234 276.679 32.1689C276.558 33.4228 276.855 34.6815 277.525 35.7485C278.194 36.8155 279.198 37.6307 280.38 38.0669C281.584 38.2776 280.922 42.5807 278.635 44.1756C278.11 44.5248 277.544 44.8078 276.95 45.0181C276.82 44.6463 276.654 44.2884 276.453 43.9499C275.249 42.0992 267.426 28.904 266.102 25.624C264.777 22.344 264.672 18.9737 267.185 16.0397C269.697 13.1058 272.857 11.9021 273.188 10.2621Z" fill="#D9D9D9" stroke="#727272" stroke-width="1.50459" stroke-miterlimit="10"/>
<path d="M306.726 41.1225C306.726 41.1225 301.821 41.9951 298.992 38.5195" stroke="#D9D9D9" stroke-width="1.50459" stroke-miterlimit="10"/>
<path d="M300.557 53.2333L290.521 50.0586L300.331 59.9889L300.557 53.2333Z" fill="#D9D9D9" stroke="#727272" stroke-width="1.50459" stroke-miterlimit="10"/>
<path d="M303.942 23.2886C303.942 23.2886 300.391 21.3477 298.33 24.2666" stroke="#D9D9D9" stroke-width="1.50459" stroke-miterlimit="10"/>
<path d="M327.203 106.553C327.203 106.553 340.819 129.362 341.195 133.771C341.572 138.179 334.019 153.33 331.807 153.827C329.595 154.323 323.336 147.207 322.614 144.258C321.892 141.309 320.763 108.027 322.057 105.138C323.351 102.25 327.203 106.553 327.203 106.553Z" fill="#D9D9D9" stroke="#727272" stroke-width="1.50459" stroke-miterlimit="10"/>
<path d="M304.619 65.6772L317.679 66.6702C317.679 66.6702 324.871 65.0001 327.037 65.6772C329.204 66.3542 360.003 78.2255 363.358 80.5726C366.713 82.9198 366.202 91.4357 365.359 94.9565C365.07 96.1847 364.393 97.2872 363.428 98.1003C362.463 98.9133 361.262 99.3938 360.003 99.4702C358.498 99.6357 327.383 97.6346 327.383 97.6346L335.403 179.123L318.672 184.54L306.801 186.044L300.933 84.4695L304.619 65.6772Z" fill="#D9D9D9" stroke="#727272" stroke-width="1.50459" stroke-miterlimit="10"/>
<path d="M300.346 60.0039L304.619 65.6762C304.619 65.6762 305.116 74.2072 303.957 77.7129C303.139 80.0766 302.133 82.3709 300.948 84.5738L295.592 72.1911C297.889 68.4441 299.499 64.3169 300.346 60.0039Z" fill="#D9D9D9" stroke="#727272" stroke-width="1.50459" stroke-miterlimit="10"/>
<path d="M279.643 87.7183L281.147 186.404C281.147 186.404 266.433 184.749 261.588 182.718C258.827 181.565 256.125 180.274 253.493 178.851C253.493 178.851 258.278 142.741 258.458 139.852C258.639 136.964 258.639 134.511 258.639 134.511C258.639 134.511 247.791 138.378 243.743 137.099C239.696 135.82 239.139 131.577 239.516 126.236C239.729 123.281 239.759 120.317 239.606 117.359C239.606 116.441 240.704 101.199 245.128 89.7946C249.551 78.3899 246.873 78.0288 250.002 76.0126C253.132 73.9965 275.942 65.8867 275.942 65.8867L278.514 71.228L279.643 87.7183Z" fill="#D9D9D9" stroke="#727272" stroke-width="1.50459" stroke-miterlimit="10"/>
<path d="M262.265 71.4102C262.265 71.4102 265.575 110.409 261.708 123.288L255.69 123.484C256.066 127.998 258.804 119.978 259.541 95.5137C259.857 84.9816 255.133 73.8025 255.133 73.8025C257.448 72.8298 259.831 72.0301 262.265 71.4102Z" fill="#D9D9D9" stroke="#727272" stroke-width="1.50459" stroke-miterlimit="10"/>
<path d="M278.349 60.6074C278.349 60.6074 280.531 66.1293 281.855 68.973C283.179 71.8166 284.157 73.6673 284.157 73.6673L279.643 87.7201C277.763 82.5209 276.378 77.1558 275.505 71.6963C274.828 65.3319 274.227 66.3098 274.227 66.3098C274.227 66.3098 277.176 59.4339 278.349 60.6074Z" fill="#D9D9D9" stroke="#727272" stroke-width="1.50459" stroke-miterlimit="10"/>
<path d="M323.697 42.2069C322.345 41.7447 321.052 41.1235 319.846 40.3563C318.838 39.5288 316.837 36.339 316.159 35.677C315.482 35.015 312.172 36.1735 311.646 34.5937C311.119 33.0139 310.743 31.3889 312.729 31.8554C314.692 32.2079 316.679 32.4191 318.672 32.4873L315.528 22.2109H329.957C329.957 22.2109 334.139 36.4443 334.139 37.6029C334.022 38.9024 333.801 40.1905 333.477 41.4546C333.477 41.4546 353.217 63.542 357.4 69.0638C361.583 74.5857 366.774 82.1237 367.285 84.9673C367.797 87.811 366.277 96.8385 362.772 98.0121C359.266 99.1857 356.076 97.8466 352.405 94.3409C348.734 90.8352 337.675 68.2363 337.179 67.3937C336.682 66.5512 328.151 45.4719 327.639 44.8249C326.403 43.8402 325.085 42.9643 323.697 42.2069Z" fill="#D9D9D9" stroke="#727272" stroke-width="1.50459" stroke-miterlimit="10"/>
<path d="M316.355 66.8063C316.355 66.8063 320.583 94.4155 325.187 108.032C329.791 121.649 333.643 130.285 333.643 130.285L331.627 142.322C326.187 132.479 321.572 122.203 317.83 111.598C311.571 93.934 308.08 66.3398 308.08 66.3398L316.355 66.8063Z" fill="#D9D9D9" stroke="#727272" stroke-width="1.50459" stroke-miterlimit="10"/>
<path d="M279.522 93.255L284.488 137.324L256.156 133.954L248.769 90.0352L279.522 93.255Z" fill="#D9D9D9" stroke="#727272" stroke-width="1.50459" stroke-miterlimit="10"/>
<path d="M275.866 93.4822L284.894 136.905L256.367 136.167L244.962 93.1211L275.866 93.4822Z" fill="#D9D9D9" stroke="#727272" stroke-width="1.50459" stroke-miterlimit="10"/>
<path d="M248.272 118.518C251.378 120.193 254.573 121.7 257.841 123.032C259.316 123.619 260.897 123.891 262.483 123.828C264.07 123.766 265.625 123.372 267.049 122.671C268.66 121.932 270.1 120.866 271.277 119.541C271.277 119.541 272.195 114.576 273.293 113.839C274.392 113.102 276.98 112.545 278.078 110.83C279.176 109.114 279.733 109.325 280.109 111.01C280.485 112.695 280.846 114.516 279.733 115.253C279.087 115.678 278.629 116.335 278.454 117.089C278.454 117.089 278.635 118.383 280.109 117.826C281.584 117.269 282.501 115.434 283.976 115.99C284.3 116.044 284.607 116.173 284.871 116.368C285.135 116.562 285.35 116.817 285.497 117.111C285.643 117.404 285.719 117.729 285.716 118.057C285.713 118.385 285.632 118.708 285.48 119C285.06 119.902 284.556 120.763 283.976 121.572C283.976 121.572 285.811 125.815 284.894 128.569C283.976 131.322 279.372 132.992 277.16 133.173C274.948 133.353 268.704 133.534 268.704 133.534C268.704 133.534 259.677 136.543 254.17 138.138C248.663 139.733 246.993 139.432 243.864 137.04C242.253 135.796 241.07 134.082 240.477 132.136C239.884 130.189 239.91 128.107 240.553 126.177C241.832 121.828 243.307 119.436 248.272 118.518Z" fill="#D9D9D9" stroke="#727272" stroke-width="1.50459" stroke-miterlimit="10"/>
<path d="M323.111 312.109C323.111 312.109 326.12 319.331 326.842 320.73C328.396 323.241 330.566 325.313 333.146 326.748C336.652 328.84 340.85 330.239 339.917 332.105C338.984 333.97 334.786 334.437 331.281 334.903C327.775 335.37 319.62 333.97 316.34 333.97C313.06 333.97 305.808 332.812 305.146 331.172C304.484 329.532 305.387 317.871 305.387 317.871C305.387 317.871 310.743 311.868 323.111 312.109Z" fill="#D9D9D9" stroke="#727272" stroke-width="1.50459" stroke-miterlimit="10"/>
<path d="M305.221 331.236C304.961 329.979 304.875 328.694 304.965 327.414L313.376 329.912C318.521 331.201 323.765 332.056 329.054 332.469C332.706 332.655 336.358 332.087 339.781 330.799C339.953 330.978 340.066 331.206 340.103 331.451C340.141 331.696 340.102 331.946 339.992 332.169C339.059 334.034 334.861 334.501 331.356 334.967C327.85 335.434 319.695 334.034 316.415 334.034C313.135 334.034 305.853 332.876 305.221 331.236Z" fill="#D9D9D9" stroke="#727272" stroke-width="1.50459" stroke-miterlimit="10"/>
<path d="M289.769 318.45C289.769 318.45 289.077 330.486 288.912 331.359C288.746 332.232 287.888 332.864 285.511 333.15C283.134 333.435 282.096 333.315 280.742 333.977C279.388 334.639 276.484 336.099 268.314 336.099C260.144 336.099 257.586 334.594 258.609 331.69C259.632 328.786 267.456 323.024 269.337 320.737C270.903 318.484 272.229 316.073 273.294 313.545C273.294 313.545 275.626 311.589 280.23 312.567C284.834 313.545 286.023 315.35 286.534 316.163C287.494 317.081 288.584 317.851 289.769 318.45Z" fill="#D9D9D9" stroke="#727272" stroke-width="1.50459" stroke-miterlimit="10"/>
<path d="M258.579 331.745C258.648 331.552 258.734 331.366 258.835 331.188C259.629 332.034 260.58 332.719 261.633 333.204C264.642 334.709 276.8 333.866 279.523 332.392C282.635 331.021 285.843 329.88 289.122 328.977C289.032 330.271 288.957 331.233 288.911 331.444C288.746 332.257 287.888 332.949 285.511 333.235C283.134 333.52 282.096 333.4 280.742 334.062C279.387 334.724 276.484 336.184 268.314 336.184C260.144 336.184 257.586 334.679 258.579 331.745Z" fill="#D9D9D9" stroke="#727272" stroke-width="1.50459" stroke-miterlimit="10"/>
<path d="M311.69 24.5107L322.824 23.7734V32.485L311.69 31.7478C311.164 31.7478 310.728 30.1378 310.728 28.1367C310.728 26.1356 311.239 24.5107 311.69 24.5107Z" fill="#D9D9D9" stroke="#727272" stroke-width="1.50459" stroke-miterlimit="10"/>
<path d="M308.636 23.6406H312.142C312.233 23.6412 312.322 23.6642 312.403 23.7074C312.483 23.7506 312.551 23.8128 312.601 23.8885C312.652 23.9642 312.683 24.0512 312.692 24.1418C312.701 24.2323 312.688 24.3237 312.654 24.408C312.27 25.6133 312.092 26.8748 312.127 28.1393C312.09 29.399 312.268 30.6558 312.654 31.8557C312.688 31.9399 312.701 32.0313 312.692 32.1219C312.683 32.2125 312.652 32.2994 312.601 32.3751C312.551 32.4509 312.483 32.5131 312.403 32.5563C312.322 32.5995 312.233 32.6224 312.142 32.623H308.636C307.974 32.623 307.433 30.6069 307.433 28.1093C307.433 25.6116 307.974 23.6406 308.636 23.6406Z" fill="#D9D9D9" stroke="#727272" stroke-width="1.50459" stroke-miterlimit="10"/>
<path d="M319.68 22.2115L343.859 21.0078V35.2713L319.68 34.0827C318.808 34.0827 318.176 31.4196 318.176 28.1546C318.176 24.8897 318.763 22.2115 319.68 22.2115Z" fill="#D9D9D9" stroke="#727272" stroke-width="1.50459" stroke-miterlimit="10"/>
<path d="M341.963 28.1396C341.963 32.0665 342.82 35.2713 343.859 35.2713C344.897 35.2713 345.754 32.0665 345.754 28.1396C345.754 24.2126 344.912 21.0078 343.859 21.0078C342.805 21.0078 341.963 24.1975 341.963 28.1396Z" fill="#D9D9D9" stroke="#727272" stroke-width="1.50459" stroke-miterlimit="10"/>
<path d="M307.463 24.5107L318.597 23.7734V32.485L307.463 31.7478C306.936 31.7478 306.5 30.1378 306.5 28.1367C306.5 26.1356 306.936 24.5107 307.463 24.5107Z" fill="#D9D9D9" stroke="#727272" stroke-width="1.50459" stroke-miterlimit="10"/>
<path d="M304.409 23.6406H307.914C308.005 23.6412 308.095 23.6642 308.175 23.7074C308.255 23.7506 308.323 23.8128 308.374 23.8885C308.424 23.9642 308.456 24.0512 308.465 24.1418C308.474 24.2323 308.46 24.3237 308.426 24.408C308.048 25.6144 307.875 26.8757 307.914 28.1393C307.874 29.3981 308.047 30.6547 308.426 31.8557C308.46 31.9399 308.474 32.0313 308.465 32.1219C308.456 32.2125 308.424 32.2994 308.374 32.3751C308.323 32.4509 308.255 32.5131 308.175 32.5563C308.095 32.5995 308.005 32.6224 307.914 32.623H304.409C303.747 32.623 303.205 30.6069 303.205 28.1093C303.205 25.6116 303.717 23.6406 304.409 23.6406Z" fill="#D9D9D9" stroke="#727272" stroke-width="1.50459" stroke-miterlimit="10"/>
<path d="M315.452 22.2115L339.631 21.0078V35.2713L315.452 34.0827C314.594 34.0827 313.947 31.4196 313.947 28.1546C313.947 24.8897 314.594 22.2115 315.452 22.2115Z" fill="#D9D9D9" stroke="#727272" stroke-width="1.50459" stroke-miterlimit="10"/>
<path d="M337.735 28.1396C337.735 32.0665 338.593 35.2713 339.631 35.2713C340.669 35.2713 341.527 32.0665 341.527 28.1396C341.527 24.2126 340.684 21.0078 339.631 21.0078C338.578 21.0078 337.735 24.1975 337.735 28.1396Z" fill="#D9D9D9" stroke="#727272" stroke-width="1.50459" stroke-miterlimit="10"/>
<path d="M329.474 21.3513C329.474 21.3513 326.36 17.9961 325.201 17.9961C324.043 17.9961 322.192 21.0053 321.861 21.3513C321.53 21.6974 321.741 22.2691 323.005 22.3895C323.967 22.3581 324.896 22.0325 325.668 21.4566L329.474 21.3513Z" fill="#D9D9D9" stroke="#727272" stroke-width="1.50459" stroke-miterlimit="10"/>
<path d="M325.202 17.9968C323.617 17.5888 321.993 17.3567 320.357 17.3047C319.424 17.5304 317.694 21.4574 318.04 22.0441C318.386 22.6309 321.862 21.352 321.862 21.352C321.862 21.352 324.164 17.8764 325.202 17.9968Z" fill="#D9D9D9" stroke="#727272" stroke-width="1.50459" stroke-miterlimit="10"/>
<path d="M319.544 17.6507C319.544 17.6507 317.694 16.4922 316.776 17.3046C315.858 18.1171 313.887 20.8856 314.354 21.9237C314.82 22.9619 318.04 22.0441 318.04 22.0441C318.04 22.0441 318.762 17.9968 319.544 17.6507Z" fill="#D9D9D9" stroke="#727272" stroke-width="1.50459" stroke-miterlimit="10"/>
<path d="M315.858 17.9938C315.858 17.9938 313.541 17.076 312.729 17.9938C311.916 18.9116 309.855 21.8005 311.224 22.5076C312.594 23.2148 313.993 21.1234 313.993 21.1234L315.858 17.9938Z" fill="#D9D9D9" stroke="#727272" stroke-width="1.50459" stroke-miterlimit="10"/>
</g>
<defs>
<clipPath id="clip0_7701_47">
<rect width="600" height="671.287" fill="white" transform="translate(0 0.183594)"/>
</clipPath>
</defs>
</svg>
