<svg width="60" height="61" viewBox="0 0 60 61" fill="none" xmlns="http://www.w3.org/2000/svg">
    <path
        d="M30 60.0391C46.5685 60.0391 60 46.6076 60 30.0391C60 13.4705 46.5685 0.0390625 30 0.0390625C13.4315 0.0390625 0 13.4705 0 30.0391C0 46.6076 13.4315 60.0391 30 60.0391Z"
        fill="#83CD20" />
    <path
        d="M36.6875 30.7578L31.6875 35.7578C31.5 35.9453 31.25 36.0391 31 36.0391C30.7188 36.0391 30.4688 35.9453 30.2812 35.7578C29.875 35.3828 29.875 34.7266 30.2812 34.3516L33.5625 31.0391H24C23.4375 31.0391 23 30.6016 23 30.0391C23 29.5078 23.4375 29.0391 24 29.0391H33.5625L30.2812 25.7578C29.875 25.3828 29.875 24.7266 30.2812 24.3516C30.6562 23.9453 31.3125 23.9453 31.6875 24.3516L36.6875 29.3516C37.0938 29.7266 37.0938 30.3828 36.6875 30.7578Z"
        fill="white" />
</svg>
    